<svg width="46" height="46" fill="none" xmlns="http://www.w3.org/2000/svg"><path d="M23 0C10.309 0 0 10.309 0 23s10.309 23 23 23 23-10.309 23-23S35.691 0 23 0zm0 2c11.61 0 21 9.39 21 21s-9.39 21-21 21S2 34.61 2 23 11.39 2 23 2zM12.812 16c-.55.05-.957.543-.906 1.094.051.55.543.957 1.094.906h20c.36.004.695-.184.879-.496a1.01 1.01 0 000-1.008c-.184-.312-.52-.5-.879-.496H12.812zm0 6c-.55.05-.957.543-.906 1.094.051.55.543.957 1.094.906h20c.36.004.695-.184.879-.496a1.01 1.01 0 000-1.008c-.184-.312-.52-.5-.879-.496H12.812zm0 6c-.55.05-.957.543-.906 1.094.051.55.543.957 1.094.906h20c.36.004.695-.184.879-.496a1.01 1.01 0 000-1.008c-.184-.312-.52-.5-.879-.496H12.812z" fill="#B8BABB"/></svg>