<svg width="42" height="42" viewBox="0 0 42 42" fill="none" xmlns="http://www.w3.org/2000/svg">
<path d="M24.5269 1.68005H5.87891V40.32H36.1189V12.9361L24.5269 1.68005ZM25.1989 4.70405L33.3469 12.6001H25.1989V4.70405ZM34.4389 38.64H7.55891V3.36005H23.5189V14.2801H34.4389V38.64Z" fill="#D2D4D5"/>
<path d="M12.6016 35.532L18.4816 33.936V32.592L14.8696 31.584V31.5L18.4816 30.492V29.148L12.6016 27.552V29.148L16.5496 29.904V29.988L12.6016 30.912V32.172L16.5496 33.096V33.18L12.6016 33.936V35.532Z" fill="#D2D4D5"/>
<path d="M12.6016 26.0401L18.4816 24.4441V23.0161L14.8696 22.0921V22.0081L18.4816 21.0001V19.5721L12.6016 18.0601V19.6561L16.5496 20.4121V20.4961L12.6016 21.4201V22.6801L16.5496 23.6041V23.6881L12.6016 24.4441V26.0401Z" fill="#D2D4D5"/>
<path d="M12.6016 16.548L18.4816 14.952V13.524L14.8696 12.6V12.516L18.4816 11.508V10.08L12.6016 8.56799V10.08L16.5496 10.92L12.6016 11.928V13.104L16.5496 14.112V14.196L12.6016 14.952V16.548Z" fill="#D2D4D5"/>
<path d="M17.0508 6.72001C17.0508 7.22401 17.3868 7.56001 17.8068 7.56001C18.2268 7.56001 18.5628 7.22401 18.5628 6.72001C18.5628 6.216 18.2268 5.88 17.8068 5.88C17.3868 5.88 17.0508 6.216 17.0508 6.72001Z" fill="#D2D4D5"/>
</svg>
