<svg width="42" height="42" viewBox="0 0 42 42" fill="none" xmlns="http://www.w3.org/2000/svg">
<path d="M5.87891 1.68005V40.3201H36.1189V12.9446L24.5131 1.68005H5.87891ZM7.55891 3.36005H23.5189V14.2801H34.4389V38.6401H7.55891V3.36005ZM25.1989 4.68568L33.3528 12.6001H25.1989V4.68568ZM19.9653 16.6951C19.3353 16.6951 18.6823 17.0527 18.3969 17.5843C18.1081 18.1126 18.0884 18.6802 18.1606 19.2708C18.2722 20.2027 18.6955 21.256 19.2434 22.3355C18.9711 23.2543 18.8398 24.0549 18.4297 25.036C17.908 26.2861 17.2681 27.2771 16.6545 28.3172C15.8539 28.6913 14.8433 29.026 14.2527 29.4132C13.5898 29.8496 13.0648 30.2401 12.7564 30.8602C12.6055 31.1686 12.5267 31.6083 12.6777 32.0054C12.8286 32.4024 13.1436 32.6616 13.4684 32.829C14.1575 33.1932 14.9516 32.9668 15.5258 32.5796C16.1 32.1924 16.6119 31.6247 17.127 30.9324C17.3862 30.5813 17.593 30.0136 17.8489 29.6035C18.6725 29.2393 19.2566 28.8619 20.1917 28.5404C21.455 28.104 22.5805 27.9202 23.7617 27.6643C24.7494 28.3304 25.7994 28.8488 26.9478 28.8488C27.5975 28.8488 28.0995 28.8193 28.5884 28.5535C29.0806 28.2877 29.3759 27.6479 29.3759 27.159C29.3759 26.7619 29.202 26.3386 28.9264 26.0663C28.6475 25.794 28.3194 25.6496 27.9814 25.5577C27.312 25.3772 26.5508 25.3904 25.6747 25.479C25.212 25.5282 24.5919 25.7743 24.0767 25.8694C24.0078 25.8169 23.9422 25.794 23.8733 25.7349C22.8266 24.8326 21.8455 23.5857 21.117 22.3454C21.0744 22.2699 21.0809 22.2174 21.0383 22.1419C21.2155 21.4791 21.5633 20.708 21.642 20.1272C21.7503 19.3233 21.7733 18.6211 21.5797 17.978C21.4812 17.6565 21.3172 17.3316 21.0317 17.0822C20.7462 16.8329 20.3427 16.6951 19.9653 16.6951ZM19.8964 18.3685C19.9062 18.3685 19.9227 18.3751 19.9358 18.3783C19.9391 18.3849 19.9456 18.3816 19.9719 18.4636C20.0178 18.6179 19.9916 19.0543 19.9752 19.4415C19.9555 19.343 19.8406 19.1593 19.8308 19.0707C19.7816 18.6802 19.8439 18.4308 19.8702 18.3882C19.8767 18.3718 19.8866 18.3685 19.8964 18.3685ZM20.405 24.2616C20.9234 25.0065 21.4977 25.7021 22.1408 26.3419C21.2811 26.5716 20.51 26.6536 19.6437 26.9522C19.46 27.0146 19.355 27.1032 19.1745 27.1688C19.4305 26.634 19.7487 26.2369 19.9784 25.6857C20.1884 25.1836 20.2245 24.7604 20.405 24.2616Z" fill="#D2D4D5"/>
</svg>
