<svg width="42" height="42" viewBox="0 0 42 42" fill="none" xmlns="http://www.w3.org/2000/svg">
<path d="M5.87891 1.68005V40.3201H36.1189V12.9446L24.5131 1.68005H5.87891ZM7.55891 3.36005H23.5189V14.2801H34.4389V38.6401H7.55891V3.36005ZM25.1989 4.68568L33.3528 12.6001H25.1989V4.68568ZM28.0437 18.3718C27.2989 18.3422 26.2456 18.7918 25.7764 19.9041C25.3203 20.9869 25.0119 22.854 24.7231 24.6783C24.5755 25.5905 24.4508 26.4732 24.3491 27.1688C24.2473 27.8677 24.162 28.4288 24.1423 28.5305C24.1423 28.5338 24.1391 28.5404 24.1391 28.5469C24.0833 28.8357 23.9652 29.0686 23.8339 29.2032C23.7027 29.341 23.5911 29.4001 23.3778 29.4001C22.8987 29.4001 22.6756 29.2032 22.6264 28.6257C22.6264 28.6093 22.6264 28.5929 22.6231 28.5765C22.5608 28.1499 21.8323 22.434 21.8323 22.434C21.7798 22.0107 21.4189 21.6957 20.9923 21.699C20.5658 21.7022 20.2114 22.0238 20.1622 22.4471C20.1622 22.4471 19.985 24.0451 19.798 25.7086C19.6109 27.3722 19.3977 29.1933 19.3747 29.3476C19.3714 29.364 19.3714 29.3804 19.3681 29.3968C19.3189 29.971 19.0958 30.1711 18.62 30.1711C18.4034 30.1711 18.2952 30.1121 18.1639 29.9776C18.0327 29.8397 17.9112 29.6035 17.8587 29.3147C17.8555 29.3115 17.8555 29.3049 17.8522 29.3016C17.6881 28.4879 17.3797 27.2935 17.0647 25.4757V25.4724C16.9072 24.6029 16.6677 23.986 16.182 23.566C15.6997 23.146 14.9942 23.1263 14.5512 23.2904C13.662 23.6152 13.1994 24.3305 13.1994 24.3305C12.9106 24.6947 12.973 25.223 13.3372 25.5085C13.7014 25.7972 14.2297 25.7349 14.5184 25.3707C14.5184 25.3707 14.922 24.9802 15.1025 24.8916C15.1353 24.931 15.2994 25.1377 15.4109 25.7677C15.7358 27.6413 16.0606 28.9144 16.2083 29.6363V29.6232C16.31 30.181 16.5462 30.7158 16.9531 31.1391C17.3567 31.5624 17.9605 31.8511 18.62 31.8511C19.8866 31.8511 20.9333 30.8143 21.0416 29.5444L21.0383 29.5936C21.0448 29.5379 21.0842 29.1736 21.0973 29.0719C21.3467 30.181 22.2261 31.0801 23.3778 31.0801C24.0373 31.0801 24.6411 30.7913 25.0447 30.368C25.4516 29.9447 25.6845 29.4132 25.7895 28.8586C25.8486 28.5732 25.9109 28.1007 26.0127 27.4083C26.1111 26.7094 26.2391 25.8399 26.3802 24.9408C26.6656 23.1493 27.0692 21.1674 27.3252 20.5538C27.5712 19.973 27.7091 20.0386 27.9781 20.0485C28.2472 20.0583 28.5228 20.1961 28.5228 20.1961C28.9297 20.4193 29.4416 20.2716 29.668 19.868C29.8911 19.4611 29.7467 18.9493 29.3398 18.7261C29.3398 18.7261 28.7853 18.398 28.0437 18.3718Z" fill="#D2D4D5"/>
</svg>
