<svg width="189" height="44" fill="none" xmlns="http://www.w3.org/2000/svg"><path d="M59.415 2.889C59.415 1.259 60.75 0 62.456 0s3.041 1.26 3.041 2.815c0 1.704-1.26 2.963-3.041 2.963-1.706 0-3.041-1.26-3.041-2.89zm5.266 7.555h-4.524v24.593h4.524V10.444zm30.932 3.408c0 6.963-5.044 11.185-13.426 11.185h-7.863v9.926h-4.747V2.666h12.536c8.456 0 13.5 4.223 13.5 11.186zM91.385 14c0-4.667-3.116-7.333-9.124-7.333h-7.937v14.592h7.937c6.008 0 9.124-2.593 9.124-7.26zm8.381-11.111c0-1.63 1.336-2.889 3.042-2.889 1.706 0 3.041 1.26 3.041 2.815 0 1.704-1.261 2.963-3.041 2.963-1.706 0-3.042-1.26-3.042-2.89zm5.341 7.555h-4.525v24.593h4.525V10.444zm30.264 12.296c0 7.556-5.267 12.593-12.462 12.593-3.486 0-6.527-1.333-8.604-4V44h-4.451V10.444h4.303v3.926c2.002-2.74 5.118-4.148 8.752-4.148 7.195 0 12.462 5.037 12.462 12.519zm-4.525 0c0-5.184-3.56-8.592-8.308-8.592-4.673 0-8.233 3.407-8.233 8.667 0 5.259 3.56 8.666 8.233 8.666 4.748-.074 8.308-3.481 8.308-8.74zm25.591 8.667c0-.37 0-.74.074-1.037-1.409.741-2.967 1.112-4.673 1.112-4.154 0-7.195-1.926-8.456-5.334l19.582-3.777c-.148-7.334-5.415-12.075-12.09-12.075-7.121 0-12.314 5.26-12.314 12.519 0 7.333 5.267 12.592 13.204 12.592 2.002 0 3.857-.37 5.489-1.036-.594-.964-.816-1.927-.816-2.964zM142.64 22.52c0-5.186 3.338-8.519 8.011-8.519 4.006 0 6.898 2.519 7.714 6l-15.725 2.963v-.444z" fill="#D2D3D4"/><path d="M32.86 34.963H17.506C7.863 34.963 0 27.111 0 17.481 0 7.851 7.863 0 17.506 0H32.86c9.643 0 17.505 7.852 17.505 17.482 0 9.703-7.862 17.481-17.505 17.481z" fill="#818586"/><path d="M47.028 17.482c0 7.852-6.38 14.148-14.168 14.148-7.789 0-14.168-6.37-14.168-14.148S25.072 3.334 32.86 3.334c7.788 0 14.168 6.37 14.168 14.148z" fill="#D2D3D4"/><path d="M171.272 24.963v-2.074h-2.151v12.074h2.373v-6c0-2.667 1.41-4.074 3.783-4.074h.52V22.74c-2.151.074-3.709.814-4.525 2.222zm15.651-2v6.222c0 2.593-1.483 4-3.783 4-2.077 0-3.338-1.185-3.338-3.555v-6.667h-2.151v6.963c0 3.555 2.077 5.26 5.118 5.26 1.706 0 3.19-.742 4.08-1.927v1.852H189V22.963h-2.077zm-24.181 12.37a3.928 3.928 0 003.931-3.926 3.929 3.929 0 00-3.931-3.926 3.93 3.93 0 00-3.932 3.926 3.93 3.93 0 003.932 3.926z" fill="#818586"/></svg>