<svg width="75" height="75" viewBox="0 0 75 75" fill="none" xmlns="http://www.w3.org/2000/svg">
<path d="M37.5 0C35.9072 0 32.9704 0.327696 30.4388 2.49023C29.6568 3.08237 27.91 4.62177 25.3751 6.81818H13.6364C13.1843 6.81823 12.7508 6.99783 12.4311 7.31748C12.1115 7.63714 11.9319 8.07067 11.9318 8.52273V18.6867C5.91701 24.007 0.569292 28.7709 0.569292 28.7709C0.390185 28.9308 0.246886 29.1268 0.14878 29.3459C0.0506733 29.5651 -2.67381e-05 29.8025 1.05787e-08 30.0426V73.2955C4.52098e-05 73.7475 0.179645 74.181 0.4993 74.5007C0.818954 74.8204 1.25249 75 1.70455 75H73.2955C73.7475 75 74.181 74.8204 74.5007 74.5007C74.8204 74.181 75 73.7475 75 73.2955V30.0426C75 29.8025 74.9493 29.5651 74.8512 29.3459C74.7531 29.1268 74.6098 28.9308 74.4307 28.7709C74.4307 28.7709 69.0832 24.0058 63.0682 18.6867V8.52273C63.0681 8.07067 62.8885 7.63714 62.5689 7.31748C62.2492 6.99783 61.8157 6.81823 61.3636 6.81818H49.5217C47.0824 4.6235 45.3366 3.07636 44.5579 2.48691C42.0272 0.327356 39.092 0 37.5 0ZM37.5 3.40909C38.5908 3.40909 40.7157 3.6799 42.3573 5.087C42.3854 5.11124 42.4142 5.13456 42.4438 5.15692C42.5441 5.232 43.8028 6.35408 44.3415 6.81818H30.6152C31.158 6.35549 32.4564 5.23164 32.5562 5.15692C32.5858 5.13456 32.6146 5.11124 32.6427 5.087C34.2843 3.6799 36.4092 3.40909 37.5 3.40909ZM15.3409 10.2273H25.5482C25.814 10.2922 26.0914 10.2922 26.3572 10.2273H48.6029C48.7978 10.2615 48.9972 10.2615 49.1921 10.2273H59.6591V19.4624V40.1301L50.0477 47.694C48.2355 46.271 44.9263 43.6853 44.5312 43.3694C41.9052 41.2677 39.0955 40.9091 37.5 40.9091C35.779 40.9091 33.1091 41.4296 30.5253 43.3261C30.0561 43.6699 26.6377 46.3657 24.9423 47.6873L15.3409 40.1301V19.6822C15.3668 19.5123 15.3668 19.3394 15.3409 19.1695V10.2273ZM35.7955 11.9318V13.8261C33.6934 14.273 32.2528 15.4923 31.5474 16.7225C30.6643 18.2627 30.6818 19.7987 30.6818 19.7987C30.6818 21.9162 31.8684 23.6176 33.2819 24.5927C34.6954 25.5679 36.3045 26.0794 37.783 26.6036C39.2615 27.1277 40.6036 27.661 41.4218 28.2848C42.2399 28.9086 42.6136 29.4235 42.6136 30.6818C42.6136 30.6818 42.609 31.4511 42.0477 32.2931C41.4863 33.1352 40.483 34.0909 37.5 34.0909C34.6591 34.0909 33.7079 32.922 33.0589 31.624C32.4099 30.326 32.3864 28.9773 32.3864 28.9773H28.9773C28.9773 28.9773 28.9538 31.0376 30.0093 33.1488C30.9037 34.9375 32.8163 36.8041 35.7955 37.3369V39.2045H39.2045V37.3735C42.0536 36.9777 43.9222 35.627 44.8841 34.1841C46.0273 32.4693 46.0227 30.6818 46.0227 30.6818C46.0227 28.4518 44.905 26.6535 43.4859 25.5715C42.0668 24.4895 40.426 23.9242 38.9216 23.3909C37.4171 22.8576 36.0432 22.3545 35.2195 21.7862C34.3958 21.218 34.0909 20.8448 34.0909 19.7987C34.0909 19.7987 34.1084 19.1065 34.5037 18.4171C34.899 17.7277 35.4386 17.0455 37.5 17.0455C39.4886 17.0455 40.0137 17.7883 40.4497 18.6601C40.8856 19.532 40.9091 20.4545 40.9091 20.4545H44.3182C44.3182 20.4545 44.3417 18.8203 43.4992 17.1353C42.8225 15.7819 41.3661 14.3624 39.2045 13.8494V11.9318H35.7955ZM11.9318 23.2444V37.4434L3.45237 30.7684C3.85893 30.406 8.0106 26.7206 11.9318 23.2444ZM63.0682 23.2444C66.9901 26.721 71.1425 30.4105 71.5476 30.7717L63.0682 37.4467V23.2444ZM3.40909 35.0764L22.1757 49.848C19.3989 52.0225 18.1512 52.9783 14.8016 55.6108C8.9911 60.1773 5.30407 63.0833 3.40909 64.5763V35.0764ZM71.5909 35.0764V64.583C69.1075 62.6367 60.5257 55.9119 52.8109 49.8613L71.5909 35.0764ZM37.5 44.3182C38.5908 44.3182 40.5539 44.5548 42.4006 46.0327C44.712 47.8812 70.6902 68.2094 71.5909 68.9142V71.5909H3.40909V68.9109C3.87629 68.543 10.026 63.7001 16.909 58.2908C24.0484 52.6799 31.6264 46.7474 32.5428 46.076C34.4318 44.6895 36.5346 44.3182 37.5 44.3182Z" fill="#E4E6E6"/>
</svg>
