<svg width="75" height="67" viewBox="0 0 75 67" fill="none" xmlns="http://www.w3.org/2000/svg">
<path d="M56.2383 0C48.3918 0 41.6817 4.06411 38.8887 9.96316L38.8857 9.96613C37.9992 11.8406 37.5 13.8862 37.5 16.0332C37.5 19.2355 38.6089 22.2155 40.4854 24.7265C41.4724 26.036 42.6843 27.2359 44.1123 28.2805C44.0973 28.3353 44.0288 30.4365 43.0283 31.8405L42.2578 32.9201C41.9503 33.351 41.9136 33.9129 42.1611 34.3774C42.4086 34.8433 42.9044 35.1357 43.4414 35.1357H44.7861C47.4711 35.1357 48.9489 34.273 50.4609 33.3305L52.5 31.6977C53.4645 31.8363 55.1449 31.9773 56.1064 31.9773C68.3269 31.9773 75 24.6823 75 16.0332C75 7.12986 66.5823 0 56.2383 0ZM56.2383 3.04545C64.9293 3.04545 72 8.87186 72 16.0332C72 23.8692 65.7604 28.9318 56.1064 28.9318C55.3429 28.9318 53.8234 28.8144 52.9189 28.685C52.7794 28.6652 52.6395 28.6523 52.5 28.6523C51.831 28.6523 51.1751 28.8802 50.6426 29.3066L48.7412 30.8263C47.8892 31.3547 47.2188 31.7317 46.3623 31.9297C46.8228 30.7557 47.0182 29.5519 47.0947 28.6017C47.2072 27.5266 46.7478 26.4562 45.8643 25.809C44.7033 24.9594 43.6935 23.9727 42.873 22.8855C41.3205 20.8055 40.5 18.4361 40.5 16.0332C40.5 14.442 40.8513 12.8758 41.5488 11.3729C41.5638 11.3439 41.5793 11.3111 41.5928 11.2807C43.9613 6.27699 49.7103 3.04545 56.2383 3.04545ZM0 12.1818V67H75V26.1154C74.1795 27.3655 73.1685 28.5248 72 29.5831V56.2874L52.3184 40.4891C53.2559 39.6592 56.0937 37.0365 58.3887 34.9276C57.6462 34.9793 56.8939 35.0227 56.1064 35.0227C55.4614 35.0227 54.6107 34.9738 53.8037 34.9038C49.0112 39.2055 43.1714 44.5483 42.5039 45.1376C40.3904 47.0044 38.301 47.2075 37.5 47.2075C36.699 47.2075 34.6111 47.0059 32.4961 45.1376C30.3961 43.2814 6.1845 21.8616 3 19.043V15.2273H34.5439C34.5934 14.201 34.7142 13.1823 34.9482 12.1818H0ZM48.75 13.7045C47.508 13.7045 46.5 14.7278 46.5 15.9886C46.5 17.2495 47.508 18.2727 48.75 18.2727C49.992 18.2727 51 17.2495 51 15.9886C51 14.7278 49.992 13.7045 48.75 13.7045ZM56.25 13.7045C55.008 13.7045 54 14.7278 54 15.9886C54 17.2495 55.008 18.2727 56.25 18.2727C57.492 18.2727 58.5 17.2495 58.5 15.9886C58.5 14.7278 57.492 13.7045 56.25 13.7045ZM63.75 13.7045C62.508 13.7045 61.5 14.7278 61.5 15.9886C61.5 17.2495 62.508 18.2727 63.75 18.2727C64.992 18.2727 66 17.2495 66 15.9886C66 14.7278 64.992 13.7045 63.75 13.7045ZM3 23.0729C7.77734 27.2988 16.0808 34.6465 22.6816 40.4861L3 56.2874V23.0729ZM24.9814 42.5233C26.5059 43.8719 30.1573 47.101 30.5303 47.4306C33.4073 49.9735 36.363 50.247 37.5 50.247C38.637 50.247 41.5942 49.9735 44.4697 47.4306C45.0277 46.9372 47.1476 45.0647 50.0156 42.5263L72 60.1685V63.9545H3V60.1685L24.9814 42.5233Z" fill="#E4E6E6"/>
</svg>
