<svg width="75" height="75" viewBox="0 0 75 75" fill="none" xmlns="http://www.w3.org/2000/svg">
<path d="M37.5 0C35.9473 0 33.082 0.369141 30.6094 2.4375C30.5859 2.46094 30.5273 2.47852 30.5156 2.48438C29.6777 3.12305 27.6211 4.93359 24.6562 7.5H13.5C13.4531 7.5 13.4062 7.5 13.3594 7.5C12.5859 7.57031 11.9941 8.2207 12 9V18.7031C5.91211 24.0879 0.515625 28.875 0.515625 28.875C0.1875 29.1562 0 29.5664 0 30V73.5C0 74.3262 0.673828 75 1.5 75H73.5C74.3262 75 75 74.3262 75 73.5V30C75 29.5664 74.8125 29.1562 74.4844 28.875C74.4844 28.875 69.0879 24.0879 63 18.7031V9C63 8.17383 62.3262 7.5 61.5 7.5H50.25C47.4023 4.92773 45.3223 3.12305 44.4844 2.48438C44.4727 2.47852 44.4141 2.46094 44.3906 2.4375C41.918 0.369141 39.0527 0 37.5 0ZM37.5 3C38.625 3 40.8105 3.26953 42.5156 4.73438C42.5449 4.75195 42.5801 4.76953 42.6094 4.78125C42.7852 4.91016 44.5898 6.51562 45.7031 7.5H29.25C30.3691 6.52734 32.2148 4.91016 32.3906 4.78125C32.4199 4.76953 32.4551 4.75195 32.4844 4.73438C34.1895 3.26953 36.375 3 37.5 3ZM15 10.5H24.6562C24.9434 10.5879 25.2598 10.5879 25.5469 10.5H60V18.75C59.8887 19.0664 59.8887 19.418 60 19.7344V40.2188L50.5312 47.6719C48.457 46.043 44.9883 43.3535 44.5312 42.9844L44.4375 42.9375C41.8418 40.8633 39.0703 40.5 37.5 40.5C35.8184 40.5 33.1641 41.0156 30.6094 42.8906L30.5625 42.9375C30.0469 43.3184 26.4023 46.166 24.4688 47.6719L15 40.2188V19.5938C15.041 19.3945 15.041 19.1836 15 18.9844V10.5ZM36 15V24H27V27H36V36H39V27H48V24H39V15H36ZM12 22.6875V37.875L3 30.7969V30.6562C3.35742 30.3398 7.72266 26.4727 12 22.6875ZM63 22.6875C67.2773 26.4727 71.6426 30.3398 72 30.6562V30.7969L63 37.875V22.6875ZM3 34.6406L22.0312 49.5938C19.2891 51.7383 18.0938 52.6406 14.8125 55.2188C8.80664 59.9414 4.74609 63.123 3 64.5V34.6406ZM72 34.6406V64.5469C69.7734 62.8008 60.8613 55.7871 52.9688 49.5938L72 34.6406ZM37.5 43.5C38.625 43.5 40.6582 43.7578 42.5625 45.2812C44.8828 47.1387 71.2441 67.752 72 68.3438V72H3V68.3438C3.39258 68.0332 9.67383 63.082 16.6406 57.6094C23.8184 51.9668 31.4414 46.0254 32.3906 45.3281C34.3359 43.9043 36.4805 43.5 37.5 43.5Z" fill="#E4E6E6"/>
</svg>
