<svg width="75" height="65" viewBox="0 0 75 65" fill="none" xmlns="http://www.w3.org/2000/svg">
<path d="M0 0V54.418H40.7168C40.9673 54.0734 41.2328 53.7415 41.5283 53.4437L41.5811 53.3935L41.6338 53.3433L43.7666 51.3948H3V47.6364L24.9814 30.12C26.8105 31.7263 30.1086 34.624 30.5273 34.9914C33.0789 37.23 35.7813 37.7903 37.5 37.7903C39.2177 37.7903 41.9208 37.2332 44.4727 34.9944C44.8914 34.627 48.1895 31.7292 50.0186 30.123L54.6387 33.8016C54.9822 33.3225 55.3553 32.858 55.7783 32.4317L56.2266 31.98C56.3706 31.8349 56.5394 31.7204 56.6924 31.5874L52.3184 28.1036C60.1773 21.2016 69.3823 13.1167 72 10.8175V35.1154C72.5235 34.9371 73.0621 34.8113 73.6201 34.8113C74.0266 34.8113 74.4326 34.8622 74.8271 34.9619L75 35.0062V0H0ZM3 3.02322H72V6.80816C71.3691 7.36233 44.718 30.7701 42.501 32.7152C40.5559 34.4217 38.5753 34.7671 37.5 34.7671C36.4257 34.7671 34.4444 34.419 32.499 32.7122C30.282 30.7672 3.63093 7.35937 3 6.8052V3.02322ZM3 10.8145C5.6173 13.1134 14.8194 21.1954 22.6787 28.0977L3 43.7836V10.8145ZM67.5 31.6996C64.35 31.6996 60.4506 32.0013 58.3506 34.1175L57.8994 34.5693C56.3994 36.0809 55.4994 38.1989 55.6494 40.164C55.6494 41.3733 55.9488 42.5832 56.5488 43.7924L43.6494 55.5812C42.7494 56.4882 42 57.9992 42 59.5108C42 60.7201 42.4494 62.0806 43.6494 63.2899C45.1494 64.9526 46.95 65.1062 48 64.955C49.2 64.8038 50.3994 64.1968 51.1494 63.2899C55.9494 57.8481 61.5 51.6511 63 50.2906C66 51.9534 69.5994 51.4993 72.1494 48.9296L72.6006 48.4779C74.8506 46.2104 74.85 41.3739 75 39.2576C75 38.653 74.5506 38.1989 74.1006 37.8966C73.5006 37.7454 72.9012 37.8954 72.4512 38.1977L68.5488 42.1273L65.5488 41.0704L64.5 38.0471L68.5488 34.2681C68.8488 33.8146 69.0006 33.2106 68.8506 32.6059C68.5506 32.1524 68.1 31.8507 67.5 31.6996ZM63.8994 34.8733L62.1006 36.6861C61.6506 37.1396 61.4994 37.7442 61.6494 38.1977L63.1494 42.7325C63.2994 43.186 63.5988 43.4878 64.0488 43.6389L68.5488 45.1505C68.9988 45.3017 69.5988 45.1517 70.0488 44.8494L71.8506 42.8831C71.7006 44.3947 71.25 45.7558 70.5 46.5116L70.0488 46.9662C68.0988 48.9313 64.95 48.9313 63 46.9662L60 43.943C57.9 41.8268 57.9006 38.6512 59.8506 36.6861L60.2988 36.2344C61.0488 35.4786 62.3994 35.0245 63.8994 34.8733ZM58.0488 46.0599L60.75 48.6284C59.1 50.14 55.8012 53.7685 49.2012 61.3265C48.9012 61.6289 48.2988 62.0824 47.5488 62.0824C46.7988 62.3847 46.2012 62.0818 45.4512 61.4771C43.6512 59.6632 45.4512 57.6981 45.4512 57.6981L58.0488 46.0599Z" fill="#E4E6E6"/>
</svg>
