<svg width="32" height="30" viewBox="0 0 32 30" fill="none" xmlns="http://www.w3.org/2000/svg">
<path d="M16 0C7.1616 0 0 6.714 0 15C0 23.286 7.1616 30 16 30C24.8384 30 32 23.286 32 15C32 6.714 24.8384 0 16 0ZM24.1472 11.082C24.1536 11.25 24.16 11.424 24.16 11.592C24.16 16.8 19.936 22.8 12.2048 22.8C9.8304 22.8 7.6224 22.146 5.7664 21.03C6.0928 21.066 6.432 21.084 6.7712 21.084C8.7424 21.084 10.5472 20.454 11.9872 19.398C10.1504 19.368 8.6016 18.228 8.064 16.662C8.32 16.71 8.5824 16.734 8.8576 16.734C9.2416 16.734 9.6128 16.686 9.9648 16.596C8.0448 16.236 6.592 14.646 6.592 12.738C6.592 12.72 6.592 12.702 6.592 12.69C7.1616 12.984 7.808 13.164 8.4992 13.182C7.3728 12.474 6.6304 11.268 6.6304 9.906C6.6304 9.186 6.8352 8.508 7.2 7.926C9.2736 10.308 12.3712 11.88 15.8592 12.042C15.7888 11.754 15.7504 11.454 15.7504 11.142C15.7504 9 17.5744 7.26 19.84 7.206C19.8784 7.206 19.9104 7.206 19.9488 7.206C21.1584 7.206 22.2528 7.686 23.0144 8.448C23.9744 8.274 24.8704 7.944 25.6832 7.488C25.3696 8.406 24.704 9.18 23.8336 9.666C24.6848 9.57 25.4912 9.36 26.2464 9.048C25.6768 9.834 24.9664 10.524 24.1472 11.082Z" fill="#818586"/>
</svg>
