<svg width="30" height="30" viewBox="0 0 30 30" fill="none" xmlns="http://www.w3.org/2000/svg">
<path d="M15 0C6.714 0 0 6.714 0 15C0 23.286 6.714 30 15 30C23.286 30 30 23.286 30 15C30 6.714 23.286 0 15 0ZM21.522 16.056C22.446 17.028 23.418 18.012 24.366 19.086C24.648 19.404 24.474 19.89 24.396 20.028C24.336 20.13 24.078 20.4 23.898 20.4C23.256 20.406 23.25 20.4 20.55 20.4C20.148 20.4 19.992 20.286 19.776 20.058C18.84 19.074 18.954 19.194 17.928 18.096C17.796 17.952 17.532 17.772 17.274 17.886C17.058 17.982 16.668 18.126 16.668 18.522V19.902C16.668 20.154 16.278 20.34 16.038 20.34H14.202C13.338 20.34 12.588 20.13 12.174 19.932C10.386 19.062 9.324 17.856 8.16 15.84C7.17 14.124 6.306 12.426 5.454 10.656C5.358 10.458 5.292 10.02 6 10.02C6.75 10.02 7.452 10.002 8.592 10.002C8.928 10.002 9.138 10.068 9.276 10.17C9.414 10.272 9.486 10.41 9.552 10.536C10.968 13.176 10.974 13.338 11.988 14.646C12.084 14.766 12.222 14.79 12.324 14.79C12.45 14.79 12.564 14.772 12.666 14.688C12.87 14.52 12.93 14.346 12.93 14.094V11.424C12.93 11.118 12.72 10.668 12.492 10.524C12.252 10.386 11.862 10.248 11.874 10.08C11.886 9.894 12.318 9.582 13.086 9.582C14.004 9.582 14.658 9.582 15.678 9.576C15.9 9.576 16.188 9.612 16.368 9.738C16.5 9.828 16.68 9.936 16.68 10.356C16.686 11.724 16.668 12.912 16.692 14.31C16.716 14.598 16.908 14.724 17.088 14.724C17.268 14.724 17.472 14.61 17.622 14.46C18.45 13.644 19.404 11.688 19.992 10.41C20.208 9.93 20.562 9.96 20.958 9.96C22.29 9.96 22.83 9.978 24.078 9.984C24.306 9.984 24.504 10.176 24.57 10.32C24.624 10.44 24.666 10.788 24.36 11.286C23.424 12.804 22.566 14.028 21.528 15.468C21.462 15.558 21.402 15.666 21.402 15.78C21.396 15.882 21.45 15.984 21.522 16.056Z" fill="#818586"/>
</svg>
