<svg width="28" height="24" viewBox="0 0 28 24" fill="none" xmlns="http://www.w3.org/2000/svg">
<path d="M14 0.800049C12.7684 0.800049 11.76 1.80849 11.76 3.04005C11.76 3.83192 12.1844 4.53192 12.81 4.93005L8.925 13.89L3.99 9.44505C4.28969 9.06442 4.48 8.59849 4.48 8.08005C4.48 6.84849 3.47156 5.84005 2.24 5.84005C1.00844 5.84005 0 6.84849 0 8.08005C0 9.25255 0.916563 10.2129 2.065 10.3025L3.955 17.9675C3.93313 18.0288 3.92 18.0944 3.92 18.16V22.64C3.92 22.9485 4.17156 23.2 4.48 23.2H23.52C23.8284 23.2 24.08 22.9485 24.08 22.64V18.16C24.0778 18.101 24.0669 18.0419 24.045 17.985L25.935 10.3025C27.0834 10.2129 28 9.25255 28 8.08005C28 6.84849 26.9916 5.84005 25.76 5.84005C24.5284 5.84005 23.52 6.84849 23.52 8.08005C23.52 8.60286 23.7059 9.07974 24.01 9.46255L19.075 13.89L15.19 4.93005C15.8156 4.53192 16.24 3.83192 16.24 3.04005C16.24 1.80849 15.2316 0.800049 14 0.800049ZM14 1.92005C14.6256 1.92005 15.12 2.41442 15.12 3.04005C15.12 3.66567 14.6256 4.16005 14 4.16005C13.3744 4.16005 12.88 3.66567 12.88 3.04005C12.88 2.41442 13.3744 1.92005 14 1.92005ZM13.895 5.26255C13.93 5.26474 13.965 5.28005 14 5.28005C14.0416 5.28005 14.0809 5.26474 14.1225 5.26255L18.3575 15.0625C18.4297 15.2288 18.5763 15.3513 18.7534 15.3885C18.9306 15.4279 19.1166 15.3775 19.25 15.255L24.78 10.2675L22.995 17.6H5.005L3.22 10.285L8.75 15.255C8.88344 15.3775 9.06938 15.4279 9.24656 15.3885C9.42375 15.3513 9.57031 15.2288 9.6425 15.0625L13.895 5.26255ZM2.24 6.96005C2.86563 6.96005 3.36 7.45442 3.36 8.08005C3.36 8.70567 2.86563 9.20005 2.24 9.20005C1.61438 9.20005 1.12 8.70567 1.12 8.08005C1.12 7.45442 1.61438 6.96005 2.24 6.96005ZM25.76 6.96005C26.3856 6.96005 26.88 7.45442 26.88 8.08005C26.88 8.70567 26.3856 9.20005 25.76 9.20005C25.1344 9.20005 24.64 8.70567 24.64 8.08005C24.64 7.45442 25.1344 6.96005 25.76 6.96005ZM5.04 18.72H22.96V22.08H5.04V18.72Z" fill="#D2D3D4"/>
</svg>
