<svg width="26" height="26" viewBox="0 0 26 26" fill="none" xmlns="http://www.w3.org/2000/svg">
<path d="M3.9875 0.119995C1.88093 0.119995 0.172495 1.89187 0.172495 3.98749C0.172495 5.61281 1.21812 7.00624 2.745 7.48749C2.35125 9.39718 2.84781 11.4753 4.31999 12.9475L4.42499 13.0525L4.355 13.0875L4.3025 13.1225L4.2675 13.1575C2.84125 14.5837 2.29218 16.5809 2.605 18.4425C1.16562 19.0331 0.119995 20.3697 0.119995 22.0125C0.119995 24.1081 1.835 25.88 3.9875 25.88C5.63031 25.88 6.97781 24.83 7.5225 23.3425C9.36656 23.6422 11.3112 23.1019 12.7725 21.6975V21.68L12.825 21.6275L12.9475 21.7325C14.4197 23.2047 16.5131 23.7494 18.4775 23.3075C19.0003 24.7994 20.3828 25.88 22.065 25.88C24.1606 25.88 25.9325 24.165 25.9325 22.0125V21.995C25.8734 20.2472 24.6703 18.8537 23.0625 18.39C23.3534 16.5525 22.8087 14.6362 21.4 13.2275L21.295 13.105L21.3475 13.0525C22.8153 11.5847 23.3031 9.55687 22.9575 7.66249C24.5675 7.19656 25.775 5.79656 25.775 4.03999C25.775 1.94437 24.06 0.172495 21.9075 0.172495C20.1553 0.172495 18.7553 1.37125 18.285 2.97249C16.3797 2.58531 14.3519 3.12781 12.8425 4.58249L12.7375 4.49499C12.7309 4.48843 12.7266 4.48406 12.72 4.47749C11.3528 3.06656 9.42781 2.57874 7.61 2.83249C7.13531 1.2575 5.69375 0.119995 3.9875 0.119995ZM3.9875 1.24C5.34156 1.24 6.49874 2.21343 6.6825 3.49749L6.77 4.09249L7.3475 3.96999C8.96843 3.61562 10.7359 4.01812 11.9325 5.26499V5.28249L11.985 5.33499L10.375 6.94499L10.3225 6.89249C9.32062 5.89062 7.66687 5.89062 6.665 6.89249C5.66312 7.89437 5.66312 9.53062 6.665 10.5325L6.7 10.5675L6.82249 10.6725L6.7875 10.7075L9.58749 13.5075L9.9725 13.91L10.025 13.84L12.0375 15.8525L10.4275 17.48L7.96 15.0125L5.5625 12.5975L5.4225 12.475L5.1075 12.16C3.80375 10.8562 3.39906 8.93124 3.9 7.27749L4.0925 6.66499L3.445 6.55999C2.15218 6.37624 1.2925 5.30218 1.2925 3.98749C1.2925 2.49781 2.51093 1.24 3.9875 1.24ZM21.9075 1.2925C23.4497 1.2925 24.655 2.55031 24.655 4.03999C24.655 5.44656 23.6356 6.54687 22.275 6.73499L21.645 6.82249L21.82 7.43499C22.2728 9.09968 21.8681 10.9569 20.56 12.265L20.5075 12.3175L18.88 10.7075L18.9325 10.655C19.9344 9.65312 19.9344 7.99937 18.9325 6.99749C17.9306 5.99562 16.2944 5.99562 15.2925 6.99749L14.8375 7.45249L12.44 9.86749L12.0375 10.2525L12.055 10.27L10.0425 12.265L8.3975 10.6375L10.76 8.23999L13.175 5.84249L13.6125 5.38749C14.9862 4.06406 16.8478 3.62874 18.495 4.12749L19.125 4.31999L19.2125 3.67249C19.4006 2.31187 20.5009 1.2925 21.9075 1.2925ZM8.48499 7.25999C8.85906 7.25999 9.23312 7.39562 9.5175 7.67999L9.64 7.80249L7.59249 9.86749L7.4525 9.74499L7.435 9.72749C6.88593 9.15874 6.89031 8.24218 7.4525 7.67999C7.73687 7.39562 8.11093 7.25999 8.48499 7.25999ZM17.1125 7.36499C17.4866 7.36499 17.8606 7.51812 18.145 7.80249C18.7116 8.36906 18.7116 9.30093 18.145 9.86749L18.11 9.91999L16.045 7.85499L16.08 7.80249C16.3644 7.51812 16.7384 7.36499 17.1125 7.36499ZM15.24 8.64249L17.305 10.7075L17.7075 11.0925L20.035 13.4375L20.6125 14.015C21.8747 15.2772 22.3253 17.0316 21.925 18.635L21.7675 19.23L22.38 19.3175C23.7362 19.5034 24.7578 20.6037 24.8125 22.0125C24.8125 22.0191 24.8125 22.0234 24.8125 22.03C24.8037 23.5634 23.5481 24.76 22.065 24.76C20.6978 24.76 19.5997 23.8347 19.37 22.59L19.265 21.96L18.6525 22.1525C16.9659 22.6994 15.0781 22.2619 13.77 20.98L13.63 20.84L15.24 19.23L15.31 19.3C16.3119 20.2822 17.9372 20.2778 18.9325 19.2825C19.9212 18.2937 19.9344 16.6641 18.9675 15.66L18.9325 15.625L18.8975 15.5725L18.95 15.52L18.5475 15.1175L16.1325 12.72L15.7475 12.3175L15.7125 12.3525L13.63 10.27L15.24 8.64249ZM12.825 11.04L14.925 13.14L12.9125 15.1525L10.83 13.0525L12.825 11.04ZM5.19499 13.875L6.8575 15.555L6.7875 15.625C5.78562 16.6269 5.78562 18.2806 6.7875 19.2825C7.78937 20.2844 9.42562 20.2844 10.4275 19.2825L10.445 19.265V19.2475L10.8825 18.775L10.9 18.74L13.21 16.4475L13.28 16.36L15.7125 13.9275L17.34 15.555L15.24 17.655L15.17 17.5675L14.785 17.9875L12.5625 20.315L12.4225 20.455L12.0025 20.8925H11.985C10.6637 22.1569 8.91156 22.6053 7.3125 22.205L6.7525 22.065L6.63 22.625C6.34781 23.8959 5.30218 24.76 3.9875 24.76C2.44531 24.76 1.24 23.5022 1.24 22.0125C1.24 20.6978 2.115 19.6303 3.34 19.3L3.8825 19.16L3.7425 18.635C3.34437 17.0381 3.80593 15.2378 5.055 13.98C5.05937 13.9756 5.05062 13.9669 5.055 13.9625L5.19499 13.875ZM7.68 16.3075L9.745 18.3725L9.64 18.4775C9.07343 19.0441 8.14156 19.0441 7.575 18.4775C7.00843 17.9109 7.00843 16.9791 7.575 16.4125L7.68 16.3075ZM18.11 16.36L18.1275 16.395L18.145 16.4125C18.7116 16.9791 18.7116 17.9109 18.145 18.4775C17.5784 19.0441 16.6466 19.0441 16.08 18.4775L16.0275 18.4425L18.11 16.36Z" fill="#D2D3D4"/>
</svg>
