<svg width="28" height="28" viewBox="0 0 28 28" fill="none" xmlns="http://www.w3.org/2000/svg">
<path d="M11.2525 -6.83593e-05C11.0009 0.0283692 10.7997 0.223057 10.7625 0.472432L10.22 3.81493C9.56595 4.00524 8.93595 4.24806 8.34751 4.56743L5.60001 2.60743C5.37907 2.44774 5.0772 2.47181 4.88251 2.65993L2.69501 4.84743C2.50688 5.04212 2.48282 5.34399 2.64251 5.56493L4.56751 8.32993C4.24157 8.92712 3.9747 9.55274 3.78001 10.2199L0.472509 10.7624C0.196884 10.8062 -0.00436606 11.0446 8.9374e-06 11.3224V14.4024C0.00438394 14.6693 0.194696 14.8946 0.455009 14.9449L3.79751 15.5399C3.9922 16.1984 4.24376 16.8218 4.56751 17.4124L2.60751 20.1599C2.44782 20.3809 2.47188 20.6827 2.66001 20.8774L4.84751 23.0649C5.0422 23.2531 5.34407 23.2771 5.56501 23.1174L8.31251 21.1749C8.90751 21.5009 9.5397 21.7502 10.2025 21.9449L10.7625 25.2874C10.8063 25.5631 11.0447 25.7643 11.3225 25.7599H14.4025C14.4572 25.7556 14.5097 25.7446 14.56 25.7249V27.4399C14.56 27.7484 14.8116 27.9999 15.12 27.9999H27.44C27.7484 27.9999 28 27.7484 28 27.4399V18.4799C28 18.4624 28 18.4449 28 18.4274V17.8324C28 16.9596 27.2803 16.2399 26.4075 16.2399H21.7175C21.8028 16.0081 21.8903 15.7652 21.9625 15.5399L25.2875 14.9449C25.5566 14.9034 25.7556 14.6737 25.76 14.4024V11.3224C25.7644 11.0446 25.5631 10.8062 25.2875 10.7624L21.9275 10.2199C21.735 9.57243 21.4747 8.94899 21.1575 8.36493L23.1175 5.56493C23.2772 5.34399 23.2531 5.04212 23.065 4.84743L20.8775 2.65993C20.6828 2.47181 20.3809 2.44774 20.16 2.60743L17.4125 4.58493C16.8241 4.26118 16.1984 4.00962 15.54 3.81493L14.945 0.454932C14.8947 0.194619 14.6694 0.00430664 14.4025 -6.83593e-05H11.3225C11.2984 -0.00225586 11.2766 -0.00225586 11.2525 -6.83593e-05ZM11.795 1.11993H13.93L14.49 4.30493C14.5294 4.51493 14.6847 4.68556 14.8925 4.74243C15.7106 4.94587 16.4828 5.28056 17.185 5.70493C17.3753 5.82087 17.6159 5.81431 17.7975 5.68743L20.4225 3.79743L21.9275 5.30243L20.0725 7.96243C19.9391 8.14181 19.9259 8.38243 20.0375 8.57493C20.4575 9.27493 20.7791 10.034 20.9825 10.8499C21.035 11.0687 21.2144 11.2349 21.4375 11.2699L24.64 11.7949V13.9299L21.4375 14.4899C21.2144 14.5249 21.035 14.6912 20.9825 14.9099C20.9169 15.1768 20.7025 15.7696 20.5275 16.2399H16.1525C16.1416 16.2399 16.1284 16.2399 16.1175 16.2399C17.0013 15.389 17.5525 14.1968 17.5525 12.8799C17.5525 10.3096 15.4503 8.20743 12.88 8.20743C10.3097 8.20743 8.20751 10.3096 8.20751 12.8799C8.20751 15.4502 10.3097 17.5524 12.88 17.5524C13.5231 17.5524 14.1422 17.4212 14.7 17.1849C14.6103 17.384 14.56 17.6006 14.56 17.8324V18.3749C14.5578 18.399 14.5578 18.4209 14.56 18.4449V21.5424L13.93 24.6399H11.795L11.27 21.4724C11.235 21.2493 11.0688 21.0699 10.85 21.0174C10.0297 20.8162 9.24657 20.4968 8.54001 20.0724C8.3497 19.9565 8.10907 19.9631 7.92751 20.0899L5.30251 21.9274L3.79751 20.4224L5.65251 17.8149C5.77938 17.6334 5.78595 17.3927 5.67001 17.2024C5.24126 16.4937 4.92845 15.7324 4.72501 14.9099C4.67251 14.6912 4.49313 14.5249 4.27001 14.4899L1.12001 13.9299V11.7949L4.27001 11.2699C4.49313 11.2349 4.67251 11.0687 4.72501 10.8499C4.93063 10.0231 5.26095 9.24868 5.68751 8.53993C5.80345 8.34962 5.79688 8.10899 5.67001 7.92743L3.81501 5.30243L5.33751 3.79743L7.94501 5.65243C8.12438 5.78587 8.36501 5.79899 8.55751 5.68743C9.2597 5.26524 10.0297 4.94368 10.85 4.74243C11.0688 4.68993 11.235 4.51056 11.27 4.28743L11.795 1.11993ZM12.88 9.32743C14.8444 9.32743 16.4325 10.9156 16.4325 12.8799C16.4325 14.8443 14.8444 16.4324 12.88 16.4324C10.9156 16.4324 9.32751 14.8443 9.32751 12.8799C9.32751 10.9156 10.9156 9.32743 12.88 9.32743ZM16.1525 17.3599H20.755C20.8622 17.3927 20.9803 17.3927 21.0875 17.3599H26.4075C26.6766 17.3599 26.88 17.5634 26.88 17.8324V17.9199H15.68V17.8324C15.68 17.5634 15.8834 17.3599 16.1525 17.3599ZM15.68 19.0399H26.88V26.8799H15.68V21.6124C15.7041 21.5206 15.7041 21.4243 15.68 21.3324V19.0399ZM20.72 19.3724L20.3175 19.7574L18.445 21.6299L17.7275 21.0174L17.3075 20.6499L16.5725 21.5074L16.9925 21.8574L18.1125 22.8199L18.515 23.1699L21.1225 20.5624L21.5075 20.1599L20.72 19.3724ZM20.72 22.1724L20.3175 22.5574L18.445 24.4299L17.7275 23.8174L17.3075 23.4499L16.5725 24.3074L16.9925 24.6574L18.1125 25.6199L18.515 25.9699L21.1225 23.3624L21.5075 22.9599L20.72 22.1724Z" fill="#D2D3D4"/>
</svg>
