<svg width="28" height="27" fill="none" xmlns="http://www.w3.org/2000/svg"><path d="M13.98.135a.56.56 0 00-.325.118L.775 10.303a.559.559 0 10.69.883l.775-.604v14.724c0 .31.25.56.56.56h14.588a6.745 6.745 0 01-.802-1.106H11.2v-9.534h5.6v2.462a6.74 6.74 0 011.12-1.287V14.12h-7.84v10.64H3.36V9.708L14 1.405l10.64 8.303v5.362c.391.139.765.31 1.12.516v-5.004l.775.604a.56.56 0 10.69-.882L22.96 6.977V2.92H19.6v1.434l-5.256-4.1a.56.56 0 00-.365-.119zm6.74 3.89h1.12v2.078l-1.12-.875V4.026zM22.4 15.8c-3.08 0-5.6 2.52-5.6 5.6 0 3.08 2.52 5.6 5.6 5.6 3.08 0 5.6-2.52 5.6-5.6 0-3.08-2.52-5.6-5.6-5.6zm0 1.12a4.493 4.493 0 014.48 4.48 4.493 4.493 0 01-4.48 4.48 4.493 4.493 0 01-4.48-4.48 4.493 4.493 0 014.48-4.48zm2.408 1.904l-3.024 3.527-1.848-1.4-.672.897 2.632 2.016 3.752-4.313-.84-.727z" fill="#D2D3D4"/></svg>