<svg width="24" height="24" viewBox="0 0 24 24" fill="none" xmlns="http://www.w3.org/2000/svg">
<path d="M12 0.800049C5.82027 0.800049 0.79996 5.82036 0.79996 12C0.797773 12.2013 0.902773 12.3894 1.07777 12.4922C1.25277 12.5929 1.46715 12.5929 1.64215 12.4922C1.81715 12.3894 1.92215 12.2013 1.91996 12C1.91996 6.4263 6.42621 1.92005 12 1.92005C15.4978 1.92005 18.5668 3.70067 20.3759 6.40005H16.48C16.2787 6.39786 16.0906 6.50286 15.9878 6.67786C15.8871 6.85286 15.8871 7.06724 15.9878 7.24224C16.0906 7.41724 16.2787 7.52224 16.48 7.52005H22.08V1.92005C22.0821 1.76911 22.0231 1.62255 21.9159 1.51536C21.8087 1.40817 21.6621 1.34911 21.5112 1.3513C21.2028 1.35786 20.9556 1.61161 20.96 1.92005V5.28661C18.9146 2.56317 15.6618 0.800049 12 0.800049ZM22.6312 11.4313C22.3228 11.4379 22.0756 11.6916 22.08 12C22.08 17.5738 17.5737 22.08 12 22.08C8.50215 22.08 5.4309 20.2994 3.62402 17.6H7.51996C7.72121 17.6044 7.90934 17.4972 8.01215 17.3244C8.11277 17.1494 8.11277 16.9329 8.01215 16.7579C7.90934 16.585 7.72121 16.4779 7.51996 16.48H2.72934C2.65715 16.4669 2.58496 16.4669 2.51277 16.48H1.91996V22.08C1.91777 22.2813 2.02277 22.4694 2.19777 22.5722C2.37277 22.6729 2.58715 22.6729 2.76215 22.5722C2.93715 22.4694 3.04215 22.2813 3.03996 22.08V18.7113C5.08309 21.4347 8.33808 23.2 12 23.2C18.1796 23.2 23.2 18.1797 23.2 12C23.2021 11.8491 23.1431 11.7025 23.0359 11.5954C22.9287 11.4882 22.7821 11.4291 22.6312 11.4313Z" fill="#D2D3D4"/>
</svg>
