<svg width="23" height="27" viewBox="0 0 23 27" fill="none" xmlns="http://www.w3.org/2000/svg">
<path d="M11.875 0.560059C9.67656 0.560059 7.86749 2.31443 7.86749 4.48006C7.86749 5.45131 8.23937 6.20162 8.82999 7.03506C9.31124 7.71537 9.28499 8.08287 9.23249 8.19006C9.17999 8.29725 8.98312 8.43506 8.46249 8.40006C7.10187 8.30818 2.73999 7.80506 2.73999 7.80506V7.82256C2.21281 7.75037 1.68562 7.97568 1.40999 8.34756C1.14312 8.7085 1.04249 9.13287 0.989993 9.57256V9.60756C0.987806 9.62068 0.974681 9.62943 0.972493 9.64256H0.989993C0.983431 9.66662 0.747181 10.756 0.394993 15.3826C0.390618 15.4547 0.384056 15.3979 0.377493 15.4701H0.394993C0.366556 15.6866 0.390618 15.8813 0.394993 15.9076C0.464993 16.2641 0.661868 16.6185 0.989993 16.7826C1.31812 16.9466 1.65062 16.9029 1.93499 16.8176C2.50593 16.6469 3.04406 16.2663 3.59749 15.8726C4.25156 15.4088 4.86624 15.1201 5.57499 15.1201C7.18281 15.1201 8.46249 16.3735 8.46249 17.9201C8.46249 19.4666 7.18281 20.7201 5.57499 20.7201C4.77656 20.7201 4.32374 20.5144 3.56249 19.9151C3.13812 19.5826 2.64156 19.2216 2.10999 19.0226C1.84312 18.9241 1.55874 18.8651 1.23499 18.9351C0.911243 19.0051 0.598431 19.2719 0.464993 19.6001C0.327181 19.9369 0.333743 20.1732 0.377493 20.4576C0.379681 20.486 0.375306 20.4641 0.377493 20.4926C0.707806 23.9204 0.874056 24.2551 0.989993 24.7626C1.07312 25.1257 1.22187 25.4954 1.49749 25.7951C1.77312 26.0947 2.20843 26.3201 2.68749 26.3201H20.625C21.2484 26.3201 21.8128 26.1144 22.2 25.7251C22.5872 25.3357 22.76 24.7954 22.76 24.2201V9.73006C22.76 9.19193 22.5609 8.73256 22.2525 8.41756C21.9441 8.10256 21.5634 7.92975 21.2025 7.82256C21.1347 7.80287 21.0625 7.7985 20.9925 7.80506C20.9925 7.80506 16.7772 8.22287 15.2525 8.40006C14.8084 8.45037 14.6553 8.35193 14.5875 8.20756C14.5197 8.06318 14.4912 7.65412 14.9025 7.00006C15.2131 6.50568 15.4516 6.14475 15.62 5.75756C15.7884 5.37037 15.865 4.9635 15.865 4.48006C15.865 2.31443 14.0734 0.560059 11.875 0.560059ZM11.875 1.68006C13.4828 1.68006 14.745 2.9335 14.745 4.48006C14.745 4.85193 14.7012 5.05975 14.5875 5.32006C14.4737 5.58037 14.2703 5.90631 13.9575 6.40506C13.4325 7.24068 13.2662 8.03256 13.5725 8.68006C13.8787 9.32756 14.6291 9.60537 15.375 9.52006C16.8231 9.35162 20.7366 8.96443 20.9575 8.94256C21.1762 9.01693 21.3687 9.08912 21.465 9.18756C21.5744 9.29912 21.64 9.42162 21.64 9.73006V24.2201C21.64 24.5722 21.5416 24.7888 21.395 24.9376C21.2484 25.0863 21.0253 25.2001 20.625 25.2001H2.68749C2.53218 25.2001 2.44468 25.1607 2.33749 25.0426C2.23031 24.9244 2.12312 24.7232 2.07499 24.5176C1.93062 23.8919 1.83218 23.8351 1.49749 20.3526C1.49312 20.3416 1.48656 20.3285 1.47999 20.3176C1.46906 20.2563 1.52593 19.9501 1.49749 20.0201C1.51718 20.0201 1.59156 20.0222 1.72499 20.0726C2.02906 20.1863 2.47749 20.5035 2.86249 20.8076C3.71999 21.4813 4.54468 21.8401 5.57499 21.8401C7.77343 21.8401 9.58249 20.0857 9.58249 17.9201C9.58249 15.7544 7.77343 14.0001 5.57499 14.0001C4.55343 14.0001 3.69374 14.4332 2.94999 14.9626C2.41843 15.341 1.89562 15.6669 1.61999 15.7501C1.56749 15.7654 1.54124 15.7654 1.51499 15.7676C1.51281 15.7522 1.50843 15.7479 1.49749 15.6976C1.49093 15.6626 1.49749 15.6363 1.49749 15.6276C1.49968 15.6035 1.49968 15.5816 1.49749 15.5576C1.86062 10.7144 2.07499 9.83506 2.07499 9.83506C2.08156 9.81318 2.08812 9.78912 2.09249 9.76506C2.13187 9.40193 2.22156 9.12412 2.30249 9.01256C2.38343 8.901 2.36812 8.89006 2.58249 8.92506C2.59343 8.92506 2.60656 8.92506 2.61749 8.92506C2.61749 8.92506 6.92468 9.42162 8.39249 9.52006C9.16249 9.57256 9.92374 9.34287 10.2475 8.68006C10.5712 8.01725 10.335 7.22975 9.73999 6.38756C9.19093 5.61318 8.98749 5.19318 8.98749 4.48006C8.98749 2.9335 10.2672 1.68006 11.875 1.68006Z" fill="#D2D3D4"/>
</svg>
