<svg width="26" height="26" viewBox="0 0 26 26" fill="none" xmlns="http://www.w3.org/2000/svg">
<path d="M12.2147 0.120013C11.9434 0.117826 11.7094 0.312513 11.6612 0.579389L11.355 2.25501C11.0925 2.34033 10.8387 2.44314 10.5894 2.56564L9.21342 1.57251C8.99248 1.41283 8.68623 1.4347 8.49373 1.62939L7.29717 2.80626C7.10467 2.99876 7.07623 3.30064 7.23155 3.52376L8.19842 4.92376C8.07155 5.17095 7.96436 5.4247 7.87905 5.68501L6.20123 5.95626C5.93217 5.99783 5.73311 6.2297 5.73092 6.50533L5.71998 8.18532C5.7178 8.45658 5.91248 8.69064 6.17936 8.73876L7.86155 9.04501C7.94467 9.30532 8.04967 9.55689 8.17217 9.80408L7.17248 11.1866C7.0128 11.4075 7.03467 11.7138 7.22717 11.9084L8.40842 13.1028C8.59873 13.2953 8.90061 13.3238 9.12373 13.1684L10.5412 12.1928C10.7862 12.3175 11.0378 12.4203 11.2959 12.5056L11.5847 14.2031C11.6306 14.4722 11.8603 14.6691 12.1337 14.6713L13.8115 14.68C14.0872 14.6822 14.3212 14.4831 14.3672 14.2141L14.6537 12.5188C14.9097 12.4356 15.159 12.335 15.4019 12.2125L16.8084 13.2122C17.0315 13.3697 17.3334 13.3434 17.5259 13.1531L18.7225 11.9741C18.9172 11.7816 18.9434 11.4753 18.7837 11.25L17.7862 9.85001C17.9109 9.6072 18.0159 9.36001 18.1012 9.10626L19.8053 8.81751C20.0722 8.77157 20.269 8.5397 20.2712 8.26626L20.28 6.58845C20.2822 6.31501 20.0853 6.08095 19.814 6.03501L18.1253 5.74845C18.0422 5.49033 17.9394 5.23876 17.819 4.99158L18.8122 3.58939C18.9719 3.36845 18.9478 3.06658 18.7553 2.87189L17.574 1.67751C17.3815 1.48501 17.0753 1.45658 16.8522 1.61626L15.4653 2.60064C15.2203 2.47595 14.9709 2.37095 14.715 2.28564L14.4437 0.601263C14.4 0.330013 14.1681 0.130951 13.8925 0.128763L12.2147 0.120013ZM12.6784 1.2422L13.4134 1.24658L13.6562 2.76033C13.6912 2.98126 13.8553 3.15845 14.0697 3.21314C14.4809 3.31814 14.8769 3.48658 15.2487 3.71189C15.439 3.83001 15.6819 3.82126 15.8634 3.6922L17.1125 2.80626L17.6287 3.32689L16.7297 4.58689C16.6028 4.76845 16.5919 5.00689 16.7056 5.1972C16.9265 5.57126 17.0884 5.96939 17.1847 6.37845C17.2372 6.5972 17.4144 6.76345 17.6375 6.80282L19.1578 7.05876L19.1534 7.79157L17.6178 8.0497C17.399 8.08689 17.2219 8.25095 17.1672 8.46533C17.0644 8.8722 16.9003 9.26595 16.675 9.63345C16.559 9.82595 16.5678 10.0688 16.699 10.2503L17.5937 11.5125L17.0753 12.0266L15.8044 11.1253C15.6228 10.9963 15.3844 10.9875 15.194 11.1013C14.8222 11.3222 14.4284 11.4797 14.0194 11.5803C13.8006 11.6328 13.6365 11.81 13.5994 12.0309L13.3412 13.5578L12.6106 13.5513L12.3525 12.02C12.3153 11.8013 12.1512 11.6241 11.9325 11.5716C11.5278 11.4709 11.1297 11.3047 10.7578 11.0816C10.5697 10.9678 10.3312 10.9744 10.1497 11.1013L8.87436 11.9806L8.35811 11.4578L9.25717 10.2153C9.38842 10.0338 9.39936 9.79095 9.28342 9.59845C9.06248 9.22439 8.90061 8.82626 8.79998 8.41501C8.74748 8.20064 8.57467 8.03658 8.35592 7.99501L6.84217 7.72157L6.84873 6.98658L8.35592 6.74376C8.57686 6.70876 8.75623 6.5447 8.81092 6.32814C8.91592 5.9147 9.07998 5.51658 9.30748 5.1447C9.42342 4.95658 9.41686 4.71595 9.28998 4.53439L8.42155 3.27439L8.94217 2.75814L10.1803 3.65064C10.3597 3.78189 10.6003 3.79283 10.7928 3.68126C11.169 3.45595 11.5694 3.29626 11.9828 3.19564C12.1994 3.14533 12.3634 2.97033 12.4028 2.75376L12.6784 1.2422ZM12.9934 4.6197C12.2737 4.61533 11.5519 4.88439 11.0028 5.42908C9.90467 6.51408 9.89592 8.30126 10.9809 9.40158C12.0659 10.4997 13.8553 10.5084 14.9534 9.42345C16.0515 8.33845 16.0603 6.54908 14.9753 5.45095C14.4328 4.90189 13.7131 4.62408 12.9934 4.6197ZM12.989 5.73314C13.42 5.73533 13.8487 5.90376 14.179 6.23845C14.8397 6.90564 14.8331 7.96658 14.1659 8.62501C13.4987 9.28564 12.4378 9.28126 11.7772 8.61407C11.1165 7.9447 11.1231 6.88376 11.7903 6.22533C12.125 5.89501 12.5559 5.73095 12.989 5.73314ZM7.07623 14.68C5.61498 14.68 4.94123 15.03 4.21498 15.31C4.21498 15.3122 4.21498 15.3122 4.21498 15.3122C2.82155 15.8547 0.437171 16.9791 0.437171 16.9791C0.157171 17.1103 0.0368591 17.445 0.168109 17.725C0.301546 18.005 0.636234 18.1253 0.916234 17.9941C0.916234 17.9941 3.31592 16.8631 4.61967 16.3556C5.42467 16.0428 5.77467 15.8 7.07623 15.8C9.94842 15.8 9.83248 17.0469 11.0444 17.76C11.0619 17.7709 11.0815 17.7819 11.1012 17.7884C12.604 18.4622 14.2184 18.6 15.52 18.6C16.0953 18.6 16.4584 18.7334 16.6553 18.8822C16.85 19.0331 16.92 19.1884 16.92 19.44C16.92 19.7353 16.8456 19.8753 16.6509 20.0175C16.4584 20.1575 16.0865 20.28 15.52 20.28H12.58C11.3462 20.28 9.22217 19.7375 9.22217 19.7375C9.02967 19.685 8.82186 19.7419 8.67967 19.8841C8.53748 20.0263 8.4828 20.2341 8.5353 20.4266C8.58998 20.6213 8.74311 20.7722 8.9378 20.8225C8.9378 20.8225 11.0444 21.4 12.58 21.4H15.52C16.0909 21.4 16.5875 21.306 17.0031 21.1003C17.0578 21.085 17.1103 21.0609 17.1562 21.0281L22.4675 17.5434C23.2659 17.0819 23.8106 16.9528 24.13 16.9572C24.4494 16.9638 24.5587 17.06 24.655 17.1825C24.7972 17.3663 24.8059 17.4363 24.714 17.6484C24.62 17.8628 24.3465 18.1931 23.8544 18.5344C23.8544 18.5344 23.8544 18.5344 23.8522 18.5344C23.244 18.9588 16.4431 23.3906 15.6578 23.8369C15.065 24.1738 14.5947 24.5281 14.0587 24.6791C13.5228 24.8278 12.8906 24.8278 11.845 24.3291C11.1472 23.9944 8.17655 22.4719 7.21405 21.9841C6.67811 21.7128 6.22092 21.5597 5.75498 21.5859C5.28686 21.6122 4.89092 21.8113 4.48186 22.0694C4.47967 22.0694 4.47748 22.0716 4.47748 22.0738L3.09061 22.9597C2.91561 23.0647 2.8128 23.2572 2.81936 23.4606C2.82592 23.6641 2.94405 23.8478 3.12561 23.9397C3.30936 24.0316 3.52592 24.0184 3.69436 23.9025L5.07467 23.0188C5.43123 22.7956 5.63248 22.7147 5.81623 22.7038C5.99998 22.6928 6.25155 22.7519 6.70873 22.9838C7.66248 23.4672 10.5872 24.9678 11.3637 25.3375C12.5822 25.9216 13.5687 25.9763 14.3584 25.7575C15.1481 25.5366 15.7103 25.0947 16.2112 24.8103C17.2919 24.1956 23.7122 19.9956 24.4931 19.4531C25.0859 19.0397 25.5212 18.6088 25.7422 18.0925C25.9631 17.5763 25.8909 16.9463 25.5387 16.4956C25.5387 16.4956 25.5387 16.4956 25.5387 16.4934C25.2609 16.1391 24.7687 15.8503 24.1497 15.8372C23.7975 15.8306 23.4059 15.9116 22.9706 16.0713C22.8897 15.9641 22.7672 15.8241 22.5987 15.7016C22.2728 15.4588 21.7544 15.24 21.05 15.24C20.689 15.24 20.3937 15.3231 20.1575 15.4216C19.8206 15.1 19.2234 14.6909 18.355 14.6909C17.6506 14.6909 16.99 14.9272 16.5306 15.1984C16.4453 15.2488 16.2397 15.3778 15.8897 15.5966C15.5397 15.8153 15.0825 16.0975 14.6319 16.3797C13.9122 16.8281 13.4659 17.1081 13.2078 17.27C12.6587 17.1606 12.1097 17.0053 11.5912 16.7778C11.1494 16.4934 10.2984 14.68 7.07623 14.68ZM18.355 15.8109C18.7094 15.8109 18.9631 15.9006 19.1425 16.0056L16.5525 17.6113C16.244 17.5238 15.8984 17.48 15.52 17.48C15.3581 17.48 15.1809 17.4691 15.0125 17.4625C15.1175 17.3969 15.1175 17.3969 15.2247 17.3313C15.6753 17.0491 16.1303 16.7647 16.4825 16.5459C16.8325 16.3294 17.119 16.1522 17.0994 16.1631C17.364 16.0056 17.9394 15.8109 18.355 15.8109ZM21.05 16.36C21.505 16.36 21.75 16.4759 21.8987 16.5788C21.89 16.5831 21.8834 16.5875 21.8747 16.5941L18.005 19.1316C17.9525 18.8188 17.8234 18.5191 17.6178 18.2697L20.3237 16.5919L20.3259 16.5875C20.3478 16.5766 20.8159 16.36 21.05 16.36Z" fill="#D2D3D4"/>
</svg>
