<svg width="28" height="28" viewBox="0 0 28 28" fill="none" xmlns="http://www.w3.org/2000/svg">
<path d="M24.08 2.23999H3.91999C3.02399 2.23999 2.23999 3.02399 2.23999 3.91999V6.71999V25.2C2.23999 25.536 2.46399 25.76 2.79999 25.76H25.2C25.536 25.76 25.76 25.536 25.76 25.2V6.15999V3.91999C25.76 3.02399 24.976 2.23999 24.08 2.23999ZM24.64 24.64H3.35999V6.71999H24.64V24.64ZM24.64 5.59999H3.35999V3.91999C3.35999 3.58399 3.58399 3.35999 3.91999 3.35999H24.08C24.416 3.35999 24.64 3.58399 24.64 3.91999V5.59999Z" fill="#D2D3D4"/>
<path d="M10.808 11.928C9.63202 11.928 8.96002 12.712 8.96002 13.72C8.96002 14.392 9.46402 15.064 10.192 15.512C10.696 15.848 11.032 16.184 11.032 16.688C11.032 17.248 10.696 17.584 10.024 17.584C9.68802 17.584 9.29602 17.472 9.01602 17.304L8.84802 18.2C9.07202 18.312 9.52002 18.48 10.024 18.48C11.2 18.48 11.984 17.752 11.984 16.632C11.984 15.96 11.648 15.344 10.864 14.784C10.192 14.392 9.96802 14.112 9.96802 13.608C9.96802 13.216 10.248 12.824 10.808 12.824C11.144 12.824 11.424 12.936 11.592 13.048L11.76 12.152C11.592 12.04 11.256 11.928 10.808 11.928Z" fill="#D2D3D4"/>
<path d="M14.4481 11.928C13.2721 11.928 12.6001 12.712 12.6001 13.72C12.6001 14.392 13.1041 15.064 13.8321 15.512C14.3361 15.848 14.6721 16.184 14.6721 16.688C14.6721 17.248 14.3361 17.584 13.7201 17.584C13.3841 17.584 12.9361 17.472 12.7121 17.304L12.5441 18.2C12.7681 18.312 13.2161 18.48 13.7201 18.48C14.8961 18.48 15.6801 17.752 15.6801 16.632C15.6801 15.96 15.3441 15.344 14.5601 14.784C13.8881 14.392 13.6641 14.112 13.6641 13.608C13.6641 13.216 13.9441 12.824 14.5041 12.824C14.8401 12.824 15.1201 12.936 15.2881 13.048L15.4561 12.152C15.2321 12.04 14.8401 11.928 14.4481 11.928Z" fill="#D2D3D4"/>
<path d="M16.4081 11.984V18.368H19.1521V17.528H17.4161V11.984H16.4081Z" fill="#D2D3D4"/>
</svg>
