<svg width="28" height="28" viewBox="0 0 28 28" fill="none" xmlns="http://www.w3.org/2000/svg">
<path d="M4.305 0C3.76906 0 3.3425 0.369687 3.255 0.8925L0.0525 19.8275C0.0196875 19.9325 0 20.0462 0 20.16V26.88C0 27.4925 0.5075 28 1.12 28H26.88C27.4925 28 28 27.4925 28 26.88V20.16C28 19.9937 27.9628 19.8297 27.895 19.6875L24.745 0.8925C24.6575 0.369687 24.2309 0 23.695 0H4.305ZM4.3575 1.12H23.6425L26.6525 19.04H1.33L4.3575 1.12ZM1.12 20.16H26.8625C26.8669 20.1709 26.8734 20.1841 26.88 20.195V26.88H1.12V20.16ZM3.92 22.4V25.2H19.04V22.4H17.92V24.08H16.24V22.4H15.12V24.08H13.44V22.4H12.32V24.08H10.64V22.4H9.52V24.08H7.84V22.4H6.72V24.08H5.04V22.4H3.92ZM22.96 22.4C22.3409 22.4 21.84 22.9009 21.84 23.52C21.84 24.1391 22.3409 24.64 22.96 24.64C23.5791 24.64 24.08 24.1391 24.08 23.52C24.08 22.9009 23.5791 22.4 22.96 22.4Z" fill="#D2D3D4"/>
</svg>
