<svg width="28" height="28" fill="none" xmlns="http://www.w3.org/2000/svg"><path d="M4.305 0c-.536 0-.962.37-1.05.892L.053 19.828A1.124 1.124 0 000 20.16v6.72C0 27.493.507 28 1.12 28h25.76c.613 0 1.12-.508 1.12-1.12v-6.72c0-.166-.037-.33-.105-.473L24.745.892A1.048 1.048 0 0023.695 0H4.305zm.053 1.12h19.284l3.01 17.92H1.33L4.357 1.12zM14 3.92c-2.27 0-4.333.658-5.863 1.75C6.608 6.762 5.6 8.321 5.6 10.08c0 1.759 1.008 3.318 2.537 4.41 1.53 1.092 3.592 1.75 5.863 1.75 2.27 0 4.333-.658 5.863-1.75 1.529-1.092 2.537-2.651 2.537-4.41 0-1.759-1.008-3.318-2.537-4.41C18.332 4.578 16.27 3.92 14 3.92zm0 1.12c2.054 0 3.905.604 5.215 1.54s2.065 2.166 2.065 3.5-.755 2.564-2.065 3.5c-1.31.936-3.16 1.54-5.215 1.54-2.054 0-3.905-.604-5.215-1.54s-2.065-2.166-2.065-3.5.755-2.564 2.065-3.5c1.31-.936 3.16-1.54 5.215-1.54zm0 3.36c-.928 0-1.68.5-1.68 1.12 0 .62.752 1.12 1.68 1.12.928 0 1.68-.5 1.68-1.12 0-.62-.752-1.12-1.68-1.12zM1.12 20.16h25.742a.26.26 0 00.018.035v6.685H1.12v-6.72zM22.4 22.4a1.12 1.12 0 10-.001 2.239A1.12 1.12 0 0022.4 22.4z" fill="#D2D3D4"/></svg>