<svg width="28" height="28" fill="none" xmlns="http://www.w3.org/2000/svg"><path d="M4.305 0c-.503 0-.947.374-1.05.892V.91L.105 19.67a1.233 1.233 0 00-.105.49v6.72c0 .293.103.593.315.805.212.212.512.315.805.315h25.76c.293 0 .593-.103.805-.315A1.14 1.14 0 0028 26.88v-6.72c0-.16-.026-.324-.087-.473L24.797.91V.892C24.695.374 24.252 0 23.747 0H4.305zm.053 1.12h19.337l2.975 17.92H1.347l3.01-17.92zm9.625 1.68c-1.429.03-2.435.69-2.853 1.663-.385.896-.293 1.955-.053 3.062-.026.044-.083.057-.104.105a1.34 1.34 0 00-.106.7v.018c.003.013-.002.021 0 .034h.018c.04.379.138.698.315.928.063.083.164.083.245.14.06.295.127.595.245.84.079.162.166.308.263.438.02.026.067.043.087.07v.927c-.066.147-.219.287-.56.455-.365.18-.868.357-1.4.578-.532.22-1.096.487-1.557.945a2.958 2.958 0 00-.858 1.942l-.035.595h12.74l-.035-.595a2.909 2.909 0 00-.84-1.907c-.455-.455-1.017-.738-1.54-.963-.523-.225-1.022-.394-1.382-.578-.337-.172-.495-.321-.56-.472-.027-.31-.011-.588 0-.91.024-.03.065-.057.087-.088.096-.129.184-.275.262-.437.119-.243.167-.547.228-.84.092-.061.21-.048.28-.14.177-.23.258-.55.297-.928h.018c.002-.013-.002-.021 0-.034V8.33c.03-.256 0-.51-.087-.7-.02-.04-.068-.053-.088-.087.144-.508.306-1.215.245-1.995-.037-.464-.144-.952-.438-1.365-.264-.375-.715-.652-1.242-.77-.402-.418-.978-.613-1.575-.613h-.018zM14 3.92h.018c.496.004.763.144.84.28l.14.228.262.052c.348.05.5.166.63.35.13.184.219.47.245.805.052.67-.142 1.496-.263 1.855l-.157.473.367.174c.005.011.007.01 0 .053v.053c-.02.236-.07.306-.087.332h-.385l-.035.508c-.02.21-.12.496-.227.717a1.82 1.82 0 01-.158.262c-.022.029-.05.049-.053.053l-.245.123v.35c0 .4-.063.776 0 1.347l.018.053.018.07c.196.568.669.899 1.137 1.137.468.238.982.411 1.452.612.47.202.882.43 1.173.718.166.166.295.365.385.595H8.925c.09-.243.212-.442.385-.612.293-.291.713-.519 1.19-.718.477-.2.995-.36 1.47-.595.475-.234.956-.564 1.155-1.138l.035-.087v-1.732l-.245-.123c-.002-.004-.03-.024-.052-.053a1.82 1.82 0 01-.158-.262c-.107-.22-.208-.508-.228-.718l-.034-.507h-.368c-.015-.024-.068-.094-.087-.332v-.018l-.018-.035c-.007-.044.013-.042.018-.053.002-.002 0-.015 0-.017l.315-.14-.106-.438c-.264-1.087-.29-2.047-.034-2.642.253-.59.706-.952 1.837-.98zM1.137 20.16H26.88v6.72H1.12v-6.668a.35.35 0 00.017-.052zM3.92 22.4v2.8h15.12v-2.8h-1.12v1.68h-1.68V22.4h-1.12v1.68h-1.68V22.4h-1.12v1.68h-1.68V22.4H9.52v1.68H7.84V22.4H6.72v1.68H5.04V22.4H3.92zm19.04 0c-.617 0-1.12.503-1.12 1.12 0 .617.503 1.12 1.12 1.12.617 0 1.12-.503 1.12-1.12 0-.617-.503-1.12-1.12-1.12z" fill="#D2D3D4"/></svg>