<svg width="28" height="28" fill="none" xmlns="http://www.w3.org/2000/svg"><path d="M4.305 0c-.507 0-.9.343-1.015.823h-.018l-.017.07L.123 10.71c-.01.02-.027.033-.036.052v.035a.514.514 0 00-.052.158c-.002.007-.015.01-.018.018a.584.584 0 000 .087c-.006.046-.017.092-.017.14v4.48c0 .201.061.396.158.56A1.117 1.117 0 000 16.8v4.48c0 .201.061.396.158.56A1.117 1.117 0 000 22.4v4.48C0 27.493.507 28 1.12 28h25.76c.613 0 1.12-.508 1.12-1.12V22.4a1.12 1.12 0 00-.157-.56 1.12 1.12 0 00.157-.56V16.8a1.12 1.12 0 00-.157-.56 1.12 1.12 0 00.157-.56V11.2c0-.155-.046-.302-.105-.438v-.017L24.745.893l-.018-.07h-.017C24.594.343 24.202 0 23.695 0H4.305zm.053 1.12H23.66v.035l2.852 8.925H1.47l2.87-8.925a.26.26 0 00.018-.035zM1.12 11.2h25.76v4.48H1.12V11.2zm22.96 1.12a1.12 1.12 0 10-.001 2.239 1.12 1.12 0 00.001-2.239zM1.12 16.8h25.76v4.48H1.12V16.8zm22.96 1.12a1.12 1.12 0 10-.001 2.239 1.12 1.12 0 00.001-2.239zM1.12 22.4h25.76v4.48H1.12V22.4zm22.96 1.12a1.12 1.12 0 10-.001 2.239 1.12 1.12 0 00.001-2.239z" fill="#D2D3D4"/></svg>