<svg width="36" height="36" viewBox="0 0 36 36" fill="none" xmlns="http://www.w3.org/2000/svg">
<g clip-path="url(#clip0)">
<path d="M17.9744 1.45972C17.8231 1.46534 17.6775 1.51848 17.5581 1.6116L0.998118 14.5336C0.920971 14.5909 0.856052 14.6629 0.807184 14.7456C0.758316 14.8283 0.726487 14.92 0.713571 15.0151C0.700655 15.1103 0.706913 15.2071 0.731976 15.2999C0.757039 15.3926 0.800401 15.4794 0.859509 15.5551C0.918617 15.6308 0.992276 15.6939 1.07615 15.7407C1.16002 15.7875 1.25241 15.8171 1.34789 15.8277C1.44336 15.8382 1.53998 15.8296 1.63206 15.8023C1.72414 15.7749 1.80982 15.7294 1.88406 15.6685L2.88109 14.8908V33.8218C2.88109 34.2199 3.20365 34.5418 3.60109 34.5418H22.3576C21.9681 34.1047 21.6207 33.6298 21.3255 33.12H14.4011V20.8618H21.6011V24.0272C22.0079 23.4145 22.4953 22.8631 23.0411 22.3735V19.44H12.9611V33.12H4.32109V13.7672L18.0011 3.09238L31.6811 13.7672V20.6621C32.1844 20.8399 32.6653 21.0609 33.1211 21.3244V14.8908L34.1181 15.6685C34.1924 15.7294 34.278 15.7749 34.3701 15.8023C34.4622 15.8296 34.5588 15.8382 34.6543 15.8277C34.7498 15.8171 34.8422 15.7875 34.926 15.7407C35.0099 15.6939 35.0836 15.6308 35.1427 15.5551C35.2018 15.4794 35.2451 15.3926 35.2702 15.2999C35.2953 15.2071 35.3015 15.1103 35.2886 15.0151C35.2757 14.92 35.2439 14.8283 35.195 14.7456C35.1461 14.6629 35.0812 14.5909 35.0041 14.5336L29.5211 10.2558V5.04004H25.2011V6.88363L18.4441 1.6116C18.3103 1.50722 18.1439 1.45343 17.9744 1.45972ZM26.6411 6.46176H28.0811V9.13222L26.6411 8.00722V6.46176ZM28.8011 21.6C24.8411 21.6 21.6011 24.84 21.6011 28.8C21.6011 32.76 24.8411 36 28.8011 36C32.7611 36 36.0011 32.76 36.0011 28.8C36.0011 24.84 32.7611 21.6 28.8011 21.6ZM28.8011 23.04C31.9691 23.04 34.5611 25.632 34.5611 28.8C34.5611 31.968 31.9691 34.56 28.8011 34.56C25.6331 34.56 23.0411 31.968 23.0411 28.8C23.0411 25.632 25.6331 23.04 28.8011 23.04ZM31.8976 25.4883L28.0094 30.0235L25.6328 28.2235L24.7694 29.3766L28.1528 31.9683L32.9776 26.4235L31.8976 25.4883Z" fill="#6ECCE6"/>
</g>
<defs>
<clipPath id="clip0">
<rect width="36" height="36" fill="white"/>
</clipPath>
</defs>
</svg>
