<svg width="36" height="36" viewBox="0 0 36 36" fill="none" xmlns="http://www.w3.org/2000/svg">
<g clip-path="url(#clip0)">
<path d="M24.6362 2.97012C23.9021 3.01231 23.1793 3.19231 22.4987 3.53262L18.5387 5.46762H7.28866L0.898662 3.91512C0.803037 3.887 0.704599 3.88137 0.606162 3.89262C0.257412 3.93481 -0.00696345 4.22168 -0.0238385 4.57325C-0.0407135 4.922 0.195537 5.23418 0.538662 5.31012L7.01866 6.88512L7.10866 6.90762H15.5912L9.47116 9.90012C9.44585 9.91137 9.42897 9.93387 9.40366 9.94512C8.45304 10.3642 8.20272 11.6636 8.90866 12.4201L8.88616 12.4426C8.89741 12.4539 8.91991 12.4539 8.93116 12.4651C11.0743 14.8136 14.469 15.5926 17.4587 14.4226H17.4812L21.7112 12.7801L30.4412 21.5326C31.1021 22.1936 31.1021 23.2342 30.4412 23.8951C29.7802 24.5561 28.7396 24.5561 28.0787 23.8951C27.7918 23.6645 27.3784 23.687 27.1168 23.9457C26.858 24.2073 26.8355 24.6207 27.0662 24.9076C27.7271 25.5686 27.7271 26.6317 27.0662 27.2926C26.4052 27.9536 25.3646 27.9536 24.7037 27.2926L24.1862 26.7751C23.8993 26.5445 23.4859 26.567 23.2243 26.8257C22.9655 27.0873 22.943 27.5007 23.1737 27.7876C23.8346 28.4486 23.8346 29.5117 23.1737 30.1726C22.5127 30.8336 21.4721 30.8336 20.8112 30.1726L20.3162 29.6551C20.0377 29.3682 19.5793 29.3654 19.2924 29.6439C19.0055 29.9223 19.0027 30.3807 19.2812 30.6676C19.9421 31.3286 19.9421 32.3917 19.2812 33.0526C18.6202 33.7136 17.5796 33.7136 16.9187 33.0526L16.0187 32.1526L16.5587 31.6126C17.6133 30.5579 17.6133 28.8423 16.5587 27.7876C16.0327 27.2617 15.338 27.0001 14.6462 27.0001C14.6377 27.0001 14.6321 27.0001 14.6237 27.0001C14.6349 26.2914 14.3733 25.5798 13.8362 25.0426C13.3102 24.5167 12.6155 24.2551 11.9237 24.2551C11.8871 24.2551 11.8477 24.2523 11.8112 24.2551C11.8337 23.5323 11.5749 22.8039 11.0237 22.2526C10.4977 21.7267 9.80304 21.4426 9.11116 21.4426C9.0746 21.4426 9.03522 21.4398 8.99866 21.4426C9.02116 20.7198 8.76241 19.9914 8.21116 19.4401C7.68522 18.9142 6.99054 18.6526 6.29866 18.6526C5.60679 18.6526 4.9121 18.9142 4.38616 19.4401L3.73366 20.0926L0.831162 19.5976C0.786162 19.5864 0.741162 19.5779 0.696162 19.5751C0.299599 19.5498 -0.043526 19.8536 -0.0688385 20.2501C-0.0941508 20.6467 0.209599 20.9898 0.606162 21.0151L2.96866 21.4426C2.75491 22.3286 2.9771 23.2961 3.66616 23.9851C4.22304 24.542 4.96272 24.8036 5.69116 24.7726C5.66022 25.5011 5.92179 26.2407 6.47866 26.7976C7.03554 27.3545 7.77522 27.6161 8.50366 27.5851C8.48116 28.3079 8.73991 29.0364 9.29116 29.5876C9.82835 30.1248 10.5399 30.3864 11.2487 30.3751C11.2318 31.0867 11.4849 31.8039 12.0137 32.3326L12.0362 32.3551C12.7871 33.0892 13.8671 33.2832 14.8037 32.9626L15.9062 34.0651C17.1155 35.2745 19.1068 35.2745 20.3162 34.0651C20.904 33.4773 21.1768 32.7011 21.1937 31.9276C22.2343 32.2032 23.3762 31.9951 24.1862 31.1851C24.774 30.5973 25.0693 29.8211 25.0862 29.0476C26.124 29.3204 27.2687 29.1151 28.0787 28.3051C28.7705 27.6132 29.0321 26.6711 28.9337 25.7626C29.8421 25.8639 30.7843 25.5995 31.4762 24.9076C32.2496 24.1342 32.5252 23.0486 32.3087 22.0501L32.7362 21.6226L35.3912 21.2401C35.7877 21.1782 36.0605 20.8042 35.9987 20.4076C35.9368 20.0111 35.5627 19.7382 35.1662 19.8001L32.2862 20.2501L32.0612 20.2726L31.6337 20.7001C31.583 20.6411 31.5324 20.5764 31.4762 20.5201L22.6112 11.6551C22.5774 11.6214 22.538 11.5904 22.4987 11.5651C22.4902 11.5567 22.4846 11.5511 22.4762 11.5426C22.2877 11.2642 21.9333 11.1545 21.6212 11.2726L16.9412 13.0726C14.4802 14.0457 11.7099 13.4129 9.96616 11.4751L9.94366 11.4526C9.85085 11.3598 9.84522 11.2951 9.96616 11.2501H10.0112L10.0337 11.2276L18.9212 6.88512C19.073 6.86262 19.2165 6.79231 19.3262 6.68262L23.1287 4.81512H23.1512C24.4787 4.15137 26.0284 4.28637 27.2462 5.10762L27.5162 5.42262L27.5837 5.51262L27.6737 5.55762C28.9815 6.45762 30.5565 6.69668 32.0387 6.30012V6.32262L32.0837 6.30012L35.4362 5.60262C35.8271 5.51543 36.0746 5.12731 35.9874 4.73637C35.9002 4.34543 35.5121 4.09793 35.1212 4.18512L31.7462 4.90512L31.7237 4.92762H31.7012C30.6268 5.22575 29.5187 5.02887 28.5512 4.38762L28.2812 4.07262L28.2137 4.00512L28.1237 3.93762C27.2968 3.35825 26.3518 3.04325 25.3787 2.97012C25.134 2.95325 24.8809 2.95606 24.6362 2.97012ZM6.29866 20.0476C6.61366 20.0476 6.93429 20.1882 7.19866 20.4526C7.72741 20.9814 7.72741 21.7239 7.19866 22.2526L6.63616 22.7926L6.56866 22.8601L6.47866 22.9726C5.94991 23.5014 5.20741 23.5014 4.67866 22.9726C4.24554 22.5395 4.18085 21.9714 4.45366 21.4876C4.58022 21.3976 4.67304 21.2739 4.72366 21.1276L5.30866 20.5651L5.39866 20.4526C5.66304 20.1882 5.98366 20.0476 6.29866 20.0476ZM9.11116 22.8601C9.42616 22.8601 9.74679 23.0007 10.0112 23.2651C10.5399 23.7939 10.5399 24.5139 10.0112 25.0426L9.29116 25.7626C8.76241 26.2914 8.01991 26.2914 7.49116 25.7626C6.96241 25.2339 6.96241 24.5139 7.49116 23.9851L8.21116 23.2651C8.47554 23.0007 8.79616 22.8601 9.11116 22.8601ZM11.9237 25.6726C12.2387 25.6726 12.5368 25.8132 12.8012 26.0776C13.2371 26.5136 13.3102 27.0817 13.0262 27.5626C12.9277 27.6357 12.8237 27.6976 12.7337 27.7876L12.0137 28.5076V28.5301H11.9912C11.9124 28.6173 11.8533 28.7073 11.7887 28.8001C11.3077 29.0842 10.7396 29.0111 10.3037 28.5751C9.77491 28.0464 9.77491 27.3264 10.3037 26.7976L10.8437 26.2351L10.9787 26.1226L11.0237 26.0776C11.288 25.8132 11.6087 25.6726 11.9237 25.6726ZM14.6462 28.4176C14.9612 28.4176 15.2818 28.5357 15.5462 28.8001C16.0749 29.3289 16.0749 30.0714 15.5462 30.6001L14.8262 31.3201C14.7643 31.382 14.7137 31.4523 14.6462 31.5001C14.6405 31.5029 14.6293 31.4973 14.6237 31.5001C14.1202 31.8489 13.4902 31.7842 13.0262 31.3201C12.6858 30.9798 12.6071 30.2992 12.8462 29.7901C12.9362 29.7198 13.0346 29.6692 13.1162 29.5876L13.8362 28.8676C13.9318 28.772 14.0049 28.6595 14.0837 28.5526C14.2637 28.4626 14.4577 28.4176 14.6462 28.4176Z" fill="#B8BABB"/>
</g>
<defs>
<clipPath id="clip0">
<rect width="36" height="36" fill="white"/>
</clipPath>
</defs>
</svg>
