<svg width="36" height="36" viewBox="0 0 36 36" fill="none" xmlns="http://www.w3.org/2000/svg">
<path d="M5.535 0C4.84594 0 4.2975 0.475312 4.185 1.1475L0.0675 25.4925C0.0253125 25.6275 0 25.7738 0 25.92V34.56C0 35.3475 0.6525 36 1.44 36H34.56C35.3475 36 36 35.3475 36 34.56V25.92C36 25.7063 35.9522 25.4953 35.865 25.3125L31.815 1.1475C31.7025 0.475312 31.1541 0 30.465 0H5.535ZM5.6025 1.44H30.3975L34.2675 24.48H1.71L5.6025 1.44ZM18 5.04C15.0806 5.04 12.4284 5.88656 10.4625 7.29C8.49656 8.69344 7.2 10.6988 7.2 12.96C7.2 15.2213 8.49656 17.2266 10.4625 18.63C12.4284 20.0334 15.0806 20.88 18 20.88C20.9194 20.88 23.5716 20.0334 25.5375 18.63C27.5034 17.2266 28.8 15.2213 28.8 12.96C28.8 10.6988 27.5034 8.69344 25.5375 7.29C23.5716 5.88656 20.9194 5.04 18 5.04ZM18 6.48C20.6409 6.48 23.0203 7.25625 24.705 8.46C26.3897 9.66375 27.36 11.2444 27.36 12.96C27.36 14.6756 26.3897 16.2563 24.705 17.46C23.0203 18.6638 20.6409 19.44 18 19.44C15.3591 19.44 12.9797 18.6638 11.295 17.46C9.61031 16.2563 8.64 14.6756 8.64 12.96C8.64 11.2444 9.61031 9.66375 11.295 8.46C12.9797 7.25625 15.3591 6.48 18 6.48ZM18 10.8C16.8075 10.8 15.84 11.4441 15.84 12.24C15.84 13.0359 16.8075 13.68 18 13.68C19.1925 13.68 20.16 13.0359 20.16 12.24C20.16 11.4441 19.1925 10.8 18 10.8ZM1.44 25.92H34.5375C34.5431 25.9341 34.5516 25.9509 34.56 25.965V34.56H1.44V25.92ZM28.8 28.8C28.0041 28.8 27.36 29.4441 27.36 30.24C27.36 31.0359 28.0041 31.68 28.8 31.68C29.5959 31.68 30.24 31.0359 30.24 30.24C30.24 29.4441 29.5959 28.8 28.8 28.8Z" fill="#B8BABB"/>
</svg>
