<svg width="36" height="36" viewBox="0 0 36 36" fill="none" xmlns="http://www.w3.org/2000/svg">
<path d="M5.535 0C4.8825 0 4.37906 0.441562 4.23 1.0575H4.2075L4.185 1.1475L0.1575 13.77C0.14625 13.7953 0.12375 13.8122 0.1125 13.8375V13.8825C0.07875 13.9472 0.05625 14.0147 0.045 14.085C0.0421875 14.0934 0.0253125 14.0991 0.0225 14.1075C0.0196875 14.1441 0.0196875 14.1834 0.0225 14.22C0.0140625 14.2791 0 14.3381 0 14.4V20.16C0 20.4188 0.07875 20.6691 0.2025 20.88C0.07875 21.0909 0 21.3413 0 21.6V27.36C0 27.6188 0.07875 27.8691 0.2025 28.08C0.07875 28.2909 0 28.5413 0 28.8V34.56C0 35.3475 0.6525 36 1.44 36H34.56C35.3475 36 36 35.3475 36 34.56V28.8C36 28.5413 35.9213 28.2909 35.7975 28.08C35.9213 27.8691 36 27.6188 36 27.36V21.6C36 21.3413 35.9213 21.0909 35.7975 20.88C35.9213 20.6691 36 20.4188 36 20.16V14.4C36 14.2003 35.9409 14.0119 35.865 13.8375C35.865 13.8291 35.865 13.8234 35.865 13.815L31.815 1.1475L31.7925 1.0575H31.77C31.6209 0.441562 31.1175 0 30.465 0H5.535ZM5.6025 1.44H30.42C30.42 1.45406 30.42 1.47094 30.42 1.485L34.0875 12.96H1.89L5.58 1.485C5.58844 1.47094 5.59688 1.45406 5.6025 1.44ZM1.44 14.4H34.56V20.16H1.44V14.445C1.44 14.4309 1.44 14.4141 1.44 14.4ZM30.96 15.84C30.1641 15.84 29.52 16.4841 29.52 17.28C29.52 18.0759 30.1641 18.72 30.96 18.72C31.7559 18.72 32.4 18.0759 32.4 17.28C32.4 16.4841 31.7559 15.84 30.96 15.84ZM1.44 21.6H34.56V27.36H1.44V21.6ZM30.96 23.04C30.1641 23.04 29.52 23.6841 29.52 24.48C29.52 25.2759 30.1641 25.92 30.96 25.92C31.7559 25.92 32.4 25.2759 32.4 24.48C32.4 23.6841 31.7559 23.04 30.96 23.04ZM1.44 28.8H34.56V34.56H1.44V28.8ZM30.96 30.24C30.1641 30.24 29.52 30.8841 29.52 31.68C29.52 32.4759 30.1641 33.12 30.96 33.12C31.7559 33.12 32.4 32.4759 32.4 31.68C32.4 30.8841 31.7559 30.24 30.96 30.24Z" fill="#6ECCE6"/>
</svg>
