<svg width="300" height="40" viewBox="0 0 300 40" fill="none" xmlns="http://www.w3.org/2000/svg">
<rect x="1" y="1" width="298" height="38" rx="4" fill="white" stroke="#E4E6E6" stroke-width="2"/>
<path d="M45.152 25.096C44.288 25.096 43.5147 24.9093 42.832 24.536C42.16 24.1627 41.632 23.6507 41.248 23C40.864 22.3387 40.672 21.592 40.672 20.76C40.672 19.928 40.864 19.1867 41.248 18.536C41.632 17.8747 42.16 17.3627 42.832 17C43.5147 16.6267 44.288 16.44 45.152 16.44C45.92 16.44 46.6027 16.5947 47.2 16.904C47.808 17.2133 48.2773 17.6613 48.608 18.248L47.44 19C47.1733 18.5947 46.8427 18.2907 46.448 18.088C46.0533 17.8853 45.616 17.784 45.136 17.784C44.5813 17.784 44.08 17.9067 43.632 18.152C43.1947 18.3973 42.848 18.7493 42.592 19.208C42.3467 19.656 42.224 20.1733 42.224 20.76C42.224 21.3573 42.3467 21.8853 42.592 22.344C42.848 22.792 43.1947 23.1387 43.632 23.384C44.08 23.6293 44.5813 23.752 45.136 23.752C45.616 23.752 46.0533 23.6507 46.448 23.448C46.8427 23.2453 47.1733 22.9413 47.44 22.536L48.608 23.272C48.2773 23.8587 47.808 24.312 47.2 24.632C46.6027 24.9413 45.92 25.096 45.152 25.096ZM54.2636 25.096C53.421 25.096 52.6636 24.9093 51.9916 24.536C51.3196 24.1627 50.7916 23.6507 50.4076 23C50.0343 22.3387 49.8476 21.592 49.8476 20.76C49.8476 19.928 50.0343 19.1867 50.4076 18.536C50.7916 17.8747 51.3196 17.3627 51.9916 17C52.6636 16.6267 53.421 16.44 54.2636 16.44C55.1063 16.44 55.8583 16.6267 56.5196 17C57.1916 17.3627 57.7143 17.8747 58.0876 18.536C58.4716 19.1867 58.6636 19.928 58.6636 20.76C58.6636 21.592 58.4716 22.3387 58.0876 23C57.7143 23.6507 57.1916 24.1627 56.5196 24.536C55.8583 24.9093 55.1063 25.096 54.2636 25.096ZM54.2636 23.752C54.8076 23.752 55.293 23.6293 55.7196 23.384C56.157 23.128 56.4983 22.776 56.7436 22.328C56.989 21.8693 57.1116 21.3467 57.1116 20.76C57.1116 20.1733 56.989 19.656 56.7436 19.208C56.4983 18.7493 56.157 18.3973 55.7196 18.152C55.293 17.9067 54.8076 17.784 54.2636 17.784C53.7196 17.784 53.229 17.9067 52.7916 18.152C52.365 18.3973 52.0236 18.7493 51.7676 19.208C51.5223 19.656 51.3996 20.1733 51.3996 20.76C51.3996 21.3467 51.5223 21.8693 51.7676 22.328C52.0236 22.776 52.365 23.128 52.7916 23.384C53.229 23.6293 53.7196 23.752 54.2636 23.752ZM71.5559 16.44C72.6225 16.44 73.4652 16.7493 74.0839 17.368C74.7132 17.9867 75.0279 18.904 75.0279 20.12V25H73.4919V20.296C73.4919 19.4747 73.2999 18.856 72.9159 18.44C72.5425 18.024 72.0039 17.816 71.2999 17.816C70.5212 17.816 69.9025 18.0613 69.4439 18.552C68.9852 19.032 68.7559 19.7253 68.7559 20.632V25H67.2199V20.296C67.2199 19.4747 67.0279 18.856 66.6439 18.44C66.2705 18.024 65.7319 17.816 65.0279 17.816C64.2492 17.816 63.6305 18.0613 63.1719 18.552C62.7132 19.032 62.4839 19.7253 62.4839 20.632V25H60.9479V16.52H62.4199V17.784C62.7292 17.3467 63.1345 17.016 63.6359 16.792C64.1372 16.5573 64.7079 16.44 65.3479 16.44C66.0092 16.44 66.5959 16.5733 67.1079 16.84C67.6199 17.1067 68.0145 17.496 68.2919 18.008C68.6119 17.5173 69.0545 17.1333 69.6199 16.856C70.1959 16.5787 70.8412 16.44 71.5559 16.44ZM82.5101 16.44C83.3315 16.44 84.0675 16.6213 84.7181 16.984C85.3688 17.3467 85.8755 17.8533 86.2381 18.504C86.6115 19.1547 86.7981 19.9067 86.7981 20.76C86.7981 21.6133 86.6115 22.3707 86.2381 23.032C85.8755 23.6827 85.3688 24.1893 84.7181 24.552C84.0675 24.9147 83.3315 25.096 82.5101 25.096C81.9021 25.096 81.3421 24.9787 80.8301 24.744C80.3288 24.5093 79.9021 24.168 79.5501 23.72V28.104H78.0141V16.52H79.4861V17.864C79.8275 17.3947 80.2595 17.0427 80.7821 16.808C81.3048 16.5627 81.8808 16.44 82.5101 16.44ZM82.3821 23.752C82.9261 23.752 83.4115 23.6293 83.8381 23.384C84.2755 23.128 84.6168 22.776 84.8621 22.328C85.1181 21.8693 85.2461 21.3467 85.2461 20.76C85.2461 20.1733 85.1181 19.656 84.8621 19.208C84.6168 18.7493 84.2755 18.3973 83.8381 18.152C83.4115 17.9067 82.9261 17.784 82.3821 17.784C81.8488 17.784 81.3635 17.912 80.9261 18.168C80.4995 18.4133 80.1581 18.76 79.9021 19.208C79.6568 19.656 79.5341 20.1733 79.5341 20.76C79.5341 21.3467 79.6568 21.8693 79.9021 22.328C80.1475 22.776 80.4888 23.128 80.9261 23.384C81.3635 23.6293 81.8488 23.752 82.3821 23.752ZM92.0902 16.44C93.2636 16.44 94.1596 16.728 94.7782 17.304C95.4076 17.88 95.7222 18.7387 95.7222 19.88V25H94.2662V23.88C94.0102 24.2747 93.6422 24.5787 93.1622 24.792C92.6929 24.9947 92.1329 25.096 91.4822 25.096C90.5329 25.096 89.7702 24.8667 89.1942 24.408C88.6289 23.9493 88.3462 23.3467 88.3462 22.6C88.3462 21.8533 88.6182 21.256 89.1622 20.808C89.7062 20.3493 90.5702 20.12 91.7542 20.12H94.1862V19.816C94.1862 19.1547 93.9942 18.648 93.6102 18.296C93.2262 17.944 92.6609 17.768 91.9142 17.768C91.4129 17.768 90.9222 17.8533 90.4422 18.024C89.9622 18.184 89.5569 18.4027 89.2262 18.68L88.5862 17.528C89.0236 17.176 89.5462 16.9093 90.1542 16.728C90.7622 16.536 91.4076 16.44 92.0902 16.44ZM91.7382 23.912C92.3249 23.912 92.8316 23.784 93.2582 23.528C93.6849 23.2613 93.9942 22.888 94.1862 22.408V21.224H91.8182C90.5169 21.224 89.8662 21.6613 89.8662 22.536C89.8662 22.9627 90.0316 23.2987 90.3622 23.544C90.6929 23.7893 91.1516 23.912 91.7382 23.912ZM103.253 16.44C104.33 16.44 105.183 16.7547 105.813 17.384C106.453 18.0027 106.773 18.9147 106.773 20.12V25H105.237V20.296C105.237 19.4747 105.039 18.856 104.645 18.44C104.25 18.024 103.685 17.816 102.949 17.816C102.117 17.816 101.461 18.0613 100.981 18.552C100.501 19.032 100.261 19.7253 100.261 20.632V25H98.7247V16.52H100.197V17.8C100.506 17.3627 100.922 17.0267 101.445 16.792C101.978 16.5573 102.581 16.44 103.253 16.44ZM117.123 16.52L113.011 25.848C112.648 26.712 112.222 27.32 111.731 27.672C111.251 28.024 110.67 28.2 109.987 28.2C109.571 28.2 109.166 28.1307 108.771 27.992C108.387 27.864 108.067 27.672 107.811 27.416L108.467 26.264C108.904 26.68 109.411 26.888 109.987 26.888C110.36 26.888 110.67 26.7867 110.915 26.584C111.171 26.392 111.4 26.056 111.603 25.576L111.875 24.984L108.131 16.52H109.731L112.691 23.304L115.619 16.52H117.123Z" fill="#62C032"/>
<path d="M119.085 18.632C118.786 18.632 118.53 18.5307 118.317 18.328C118.103 18.1147 117.997 17.848 117.997 17.528C117.997 17.2187 118.103 16.9627 118.317 16.76C118.53 16.5467 118.786 16.44 119.085 16.44C119.383 16.44 119.634 16.5413 119.837 16.744C120.039 16.9467 120.141 17.208 120.141 17.528C120.141 17.848 120.034 18.1147 119.821 18.328C119.618 18.5307 119.373 18.632 119.085 18.632ZM119.085 25.096C118.786 25.096 118.53 24.9947 118.317 24.792C118.103 24.5787 117.997 24.312 117.997 23.992C117.997 23.6827 118.103 23.4267 118.317 23.224C118.53 23.0107 118.786 22.904 119.085 22.904C119.383 22.904 119.634 23.0053 119.837 23.208C120.039 23.4107 120.141 23.672 120.141 23.992C120.141 24.312 120.034 24.5787 119.821 24.792C119.618 24.9947 119.373 25.096 119.085 25.096ZM126.643 11.528H128.035L122.755 26.6H121.363L126.643 11.528ZM131.335 11.528H132.727L127.447 26.6H126.055L131.335 11.528ZM210.115 11.528H211.507L206.227 26.6H204.835L210.115 11.528Z" fill="#A5A9AB"/>
<path d="M139.551 20.6C140.65 20.8773 141.199 21.5653 141.199 22.664C141.199 23.4107 140.917 23.9867 140.351 24.392C139.797 24.7973 138.965 25 137.855 25H133.775V16.52H137.711C138.714 16.52 139.498 16.712 140.063 17.096C140.629 17.4693 140.911 18.0027 140.911 18.696C140.911 19.144 140.789 19.5333 140.543 19.864C140.309 20.184 139.978 20.4293 139.551 20.6ZM135.279 20.168H137.583C138.17 20.168 138.613 20.0613 138.911 19.848C139.221 19.6347 139.375 19.3253 139.375 18.92C139.375 18.1093 138.778 17.704 137.583 17.704H135.279V20.168ZM137.743 23.816C138.383 23.816 138.863 23.7147 139.183 23.512C139.503 23.3093 139.663 22.9947 139.663 22.568C139.663 22.1307 139.514 21.8053 139.215 21.592C138.927 21.3787 138.469 21.272 137.839 21.272H135.279V23.816H137.743ZM146.788 16.44C147.961 16.44 148.857 16.728 149.476 17.304C150.105 17.88 150.42 18.7387 150.42 19.88V25H148.964V23.88C148.708 24.2747 148.34 24.5787 147.86 24.792C147.39 24.9947 146.83 25.096 146.18 25.096C145.23 25.096 144.468 24.8667 143.892 24.408C143.326 23.9493 143.044 23.3467 143.044 22.6C143.044 21.8533 143.316 21.256 143.86 20.808C144.404 20.3493 145.268 20.12 146.452 20.12H148.884V19.816C148.884 19.1547 148.692 18.648 148.308 18.296C147.924 17.944 147.358 17.768 146.612 17.768C146.11 17.768 145.62 17.8533 145.14 18.024C144.66 18.184 144.254 18.4027 143.924 18.68L143.284 17.528C143.721 17.176 144.244 16.9093 144.852 16.728C145.46 16.536 146.105 16.44 146.788 16.44ZM146.436 23.912C147.022 23.912 147.529 23.784 147.956 23.528C148.382 23.2613 148.692 22.888 148.884 22.408V21.224H146.516C145.214 21.224 144.564 21.6613 144.564 22.536C144.564 22.9627 144.729 23.2987 145.06 23.544C145.39 23.7893 145.849 23.912 146.436 23.912ZM165.425 16.52V25H153.345V16.52H154.881V23.656H158.625V16.52H160.161V23.656H163.889V16.52H165.425ZM172.264 25.096C171.4 25.096 170.627 24.9093 169.944 24.536C169.272 24.1627 168.744 23.6507 168.36 23C167.976 22.3387 167.784 21.592 167.784 20.76C167.784 19.928 167.976 19.1867 168.36 18.536C168.744 17.8747 169.272 17.3627 169.944 17C170.627 16.6267 171.4 16.44 172.264 16.44C173.032 16.44 173.715 16.5947 174.312 16.904C174.92 17.2133 175.389 17.6613 175.72 18.248L174.552 19C174.285 18.5947 173.955 18.2907 173.56 18.088C173.165 17.8853 172.728 17.784 172.248 17.784C171.693 17.784 171.192 17.9067 170.744 18.152C170.307 18.3973 169.96 18.7493 169.704 19.208C169.459 19.656 169.336 20.1733 169.336 20.76C169.336 21.3573 169.459 21.8853 169.704 22.344C169.96 22.792 170.307 23.1387 170.744 23.384C171.192 23.6293 171.693 23.752 172.248 23.752C172.728 23.752 173.165 23.6507 173.56 23.448C173.955 23.2453 174.285 22.9413 174.552 22.536L175.72 23.272C175.389 23.8587 174.92 24.312 174.312 24.632C173.715 24.9413 173.032 25.096 172.264 25.096ZM180.893 16.44C182.066 16.44 182.962 16.728 183.581 17.304C184.21 17.88 184.525 18.7387 184.525 19.88V25H183.069V23.88C182.813 24.2747 182.445 24.5787 181.965 24.792C181.495 24.9947 180.935 25.096 180.285 25.096C179.335 25.096 178.573 24.8667 177.997 24.408C177.431 23.9493 177.149 23.3467 177.149 22.6C177.149 21.8533 177.421 21.256 177.965 20.808C178.509 20.3493 179.373 20.12 180.557 20.12H182.989V19.816C182.989 19.1547 182.797 18.648 182.413 18.296C182.029 17.944 181.463 17.768 180.717 17.768C180.215 17.768 179.725 17.8533 179.245 18.024C178.765 18.184 178.359 18.4027 178.029 18.68L177.389 17.528C177.826 17.176 178.349 16.9093 178.957 16.728C179.565 16.536 180.21 16.44 180.893 16.44ZM180.541 23.912C181.127 23.912 181.634 23.784 182.061 23.528C182.487 23.2613 182.797 22.888 182.989 22.408V21.224H180.621C179.319 21.224 178.669 21.6613 178.669 22.536C178.669 22.9627 178.834 23.2987 179.165 23.544C179.495 23.7893 179.954 23.912 180.541 23.912ZM187.45 16.52H188.986V22.696L194.186 16.52H195.578V25H194.042V18.824L188.858 25H187.45V16.52ZM191.418 15.416C190.629 15.416 190.016 15.2293 189.578 14.856C189.141 14.472 188.917 13.9227 188.906 13.208H189.946C189.957 13.6027 190.09 13.9227 190.346 14.168C190.613 14.4027 190.965 14.52 191.402 14.52C191.84 14.52 192.192 14.4027 192.458 14.168C192.725 13.9227 192.864 13.6027 192.874 13.208H193.946C193.936 13.9227 193.706 14.472 193.258 14.856C192.81 15.2293 192.197 15.416 191.418 15.416ZM205.04 17.864H201.936V25H200.4V17.864H197.296V16.52H205.04V17.864Z" fill="#485052"/>
<path d="M279.5 10L282.744 16.5825L290 17.6446L284.75 22.7655L285.989 30L279.5 26.5825L273.011 30L274.25 22.7655L269 17.6446L276.255 16.5825L279.5 10Z" fill="#F1F1F2"/>
<rect x="7" y="7" width="26" height="26" rx="3" fill="#62C032"/>
<path d="M24.6667 19.3019H15.3333C14.597 19.3019 14 19.9285 14 20.7015V25.6003C14 26.3733 14.597 26.9999 15.3333 26.9999H24.6667C25.403 26.9999 26 26.3733 26 25.6003V20.7015C26 19.9285 25.403 19.3019 24.6667 19.3019Z" stroke="white" stroke-width="2" stroke-linecap="round" stroke-linejoin="round"/>
<path d="M16.25 19.2222V16.75C16.25 14.6789 17.9289 13 20 13V13C22.0711 13 23.75 14.6789 23.75 16.75V19.2222" stroke="white" stroke-width="2" stroke-linecap="round" stroke-linejoin="round"/>
</svg>
