<svg width="300" height="40" viewBox="0 0 300 40" fill="none" xmlns="http://www.w3.org/2000/svg">
<rect x="1" y="1" width="298" height="38" rx="4" fill="white" stroke="#E4E6E6" stroke-width="2"/>
<path d="M45.984 16.44C47.0613 16.44 47.9147 16.7547 48.544 17.384C49.184 18.0027 49.504 18.9147 49.504 20.12V25H47.968V20.296C47.968 19.4747 47.7707 18.856 47.376 18.44C46.9813 18.024 46.416 17.816 45.68 17.816C44.848 17.816 44.192 18.0613 43.712 18.552C43.232 19.032 42.992 19.7253 42.992 20.632V25H41.456V13.128H42.992V17.72C43.312 17.3147 43.728 17 44.24 16.776C44.7627 16.552 45.344 16.44 45.984 16.44ZM57.2746 24.504C57.0506 24.696 56.7733 24.8453 56.4426 24.952C56.112 25.048 55.7706 25.096 55.4186 25.096C54.5653 25.096 53.904 24.8667 53.4346 24.408C52.9653 23.9493 52.7306 23.2933 52.7306 22.44V17.784H51.2906V16.52H52.7306V14.664H54.2666V16.52H56.6986V17.784H54.2666V22.376C54.2666 22.8347 54.3786 23.1867 54.6026 23.432C54.8373 23.6773 55.168 23.8 55.5946 23.8C56.064 23.8 56.464 23.6667 56.7946 23.4L57.2746 24.504ZM63.8565 24.504C63.6325 24.696 63.3552 24.8453 63.0245 24.952C62.6938 25.048 62.3525 25.096 62.0005 25.096C61.1472 25.096 60.4858 24.8667 60.0165 24.408C59.5472 23.9493 59.3125 23.2933 59.3125 22.44V17.784H57.8725V16.52H59.3125V14.664H60.8485V16.52H63.2805V17.784H60.8485V22.376C60.8485 22.8347 60.9605 23.1867 61.1845 23.432C61.4192 23.6773 61.7498 23.8 62.1765 23.8C62.6458 23.8 63.0458 23.6667 63.3765 23.4L63.8565 24.504ZM70.3695 16.44C71.1908 16.44 71.9268 16.6213 72.5775 16.984C73.2282 17.3467 73.7348 17.8533 74.0975 18.504C74.4708 19.1547 74.6575 19.9067 74.6575 20.76C74.6575 21.6133 74.4708 22.3707 74.0975 23.032C73.7348 23.6827 73.2282 24.1893 72.5775 24.552C71.9268 24.9147 71.1908 25.096 70.3695 25.096C69.7615 25.096 69.2015 24.9787 68.6895 24.744C68.1882 24.5093 67.7615 24.168 67.4095 23.72V28.104H65.8735V16.52H67.3455V17.864C67.6868 17.3947 68.1188 17.0427 68.6415 16.808C69.1642 16.5627 69.7402 16.44 70.3695 16.44ZM70.2415 23.752C70.7855 23.752 71.2708 23.6293 71.6975 23.384C72.1348 23.128 72.4762 22.776 72.7215 22.328C72.9775 21.8693 73.1055 21.3467 73.1055 20.76C73.1055 20.1733 72.9775 19.656 72.7215 19.208C72.4762 18.7493 72.1348 18.3973 71.6975 18.152C71.2708 17.9067 70.7855 17.784 70.2415 17.784C69.7082 17.784 69.2228 17.912 68.7855 18.168C68.3588 18.4133 68.0175 18.76 67.7615 19.208C67.5162 19.656 67.3935 20.1733 67.3935 20.76C67.3935 21.3467 67.5162 21.8693 67.7615 22.328C68.0068 22.776 68.3482 23.128 68.7855 23.384C69.2228 23.6293 69.7082 23.752 70.2415 23.752ZM79.3717 25.096C78.6784 25.096 78.0117 25.0053 77.3717 24.824C76.7317 24.632 76.2304 24.392 75.8677 24.104L76.5077 22.888C76.8811 23.1547 77.3344 23.368 77.8677 23.528C78.4011 23.688 78.9397 23.768 79.4837 23.768C80.8277 23.768 81.4997 23.384 81.4997 22.616C81.4997 22.36 81.4091 22.1573 81.2277 22.008C81.0464 21.8587 80.8171 21.752 80.5397 21.688C80.2731 21.6133 79.8891 21.5333 79.3877 21.448C78.7051 21.3413 78.1451 21.2187 77.7077 21.08C77.2811 20.9413 76.9131 20.7067 76.6037 20.376C76.2944 20.0453 76.1397 19.5813 76.1397 18.984C76.1397 18.216 76.4597 17.6027 77.0997 17.144C77.7397 16.6747 78.5984 16.44 79.6757 16.44C80.2411 16.44 80.8064 16.5093 81.3717 16.648C81.9371 16.7867 82.4011 16.9733 82.7637 17.208L82.1077 18.424C81.4144 17.976 80.5984 17.752 79.6597 17.752C79.0091 17.752 78.5131 17.8587 78.1717 18.072C77.8304 18.2853 77.6597 18.568 77.6597 18.92C77.6597 19.1973 77.7557 19.416 77.9477 19.576C78.1397 19.736 78.3744 19.8533 78.6517 19.928C78.9397 20.0027 79.3397 20.088 79.8517 20.184C80.5344 20.3013 81.0837 20.4293 81.4997 20.568C81.9264 20.696 82.2891 20.92 82.5877 21.24C82.8864 21.56 83.0357 22.008 83.0357 22.584C83.0357 23.352 82.7051 23.9653 82.0437 24.424C81.3931 24.872 80.5024 25.096 79.3717 25.096ZM85.4834 18.632C85.1847 18.632 84.9287 18.5307 84.7154 18.328C84.502 18.1147 84.3954 17.848 84.3954 17.528C84.3954 17.2187 84.502 16.9627 84.7154 16.76C84.9287 16.5467 85.1847 16.44 85.4834 16.44C85.782 16.44 86.0327 16.5413 86.2354 16.744C86.438 16.9467 86.5394 17.208 86.5394 17.528C86.5394 17.848 86.4327 18.1147 86.2194 18.328C86.0167 18.5307 85.7714 18.632 85.4834 18.632ZM85.4834 25.096C85.1847 25.096 84.9287 24.9947 84.7154 24.792C84.502 24.5787 84.3954 24.312 84.3954 23.992C84.3954 23.6827 84.502 23.4267 84.7154 23.224C84.9287 23.0107 85.1847 22.904 85.4834 22.904C85.782 22.904 86.0327 23.0053 86.2354 23.208C86.438 23.4107 86.5394 23.672 86.5394 23.992C86.5394 24.312 86.4327 24.5787 86.2194 24.792C86.0167 24.9947 85.7714 25.096 85.4834 25.096ZM93.042 11.528H94.434L89.154 26.6H87.762L93.042 11.528ZM97.7332 11.528H99.1252L93.8452 26.6H92.4532L97.7332 11.528ZM176.513 11.528H177.905L172.625 26.6H171.233L176.513 11.528Z" fill="#A5A9AB"/>
<path d="M105.95 20.6C107.049 20.8773 107.598 21.5653 107.598 22.664C107.598 23.4107 107.316 23.9867 106.75 24.392C106.196 24.7973 105.364 25 104.254 25H100.174V16.52H104.11C105.113 16.52 105.897 16.712 106.462 17.096C107.028 17.4693 107.31 18.0027 107.31 18.696C107.31 19.144 107.188 19.5333 106.942 19.864C106.708 20.184 106.377 20.4293 105.95 20.6ZM101.678 20.168H103.982C104.569 20.168 105.012 20.0613 105.31 19.848C105.62 19.6347 105.774 19.3253 105.774 18.92C105.774 18.1093 105.177 17.704 103.982 17.704H101.678V20.168ZM104.142 23.816C104.782 23.816 105.262 23.7147 105.582 23.512C105.902 23.3093 106.062 22.9947 106.062 22.568C106.062 22.1307 105.913 21.8053 105.614 21.592C105.326 21.3787 104.868 21.272 104.238 21.272H101.678V23.816H104.142ZM113.186 16.44C114.36 16.44 115.256 16.728 115.874 17.304C116.504 17.88 116.818 18.7387 116.818 19.88V25H115.362V23.88C115.106 24.2747 114.738 24.5787 114.258 24.792C113.789 24.9947 113.229 25.096 112.578 25.096C111.629 25.096 110.866 24.8667 110.29 24.408C109.725 23.9493 109.442 23.3467 109.442 22.6C109.442 21.8533 109.714 21.256 110.258 20.808C110.802 20.3493 111.666 20.12 112.85 20.12H115.282V19.816C115.282 19.1547 115.09 18.648 114.706 18.296C114.322 17.944 113.757 17.768 113.01 17.768C112.509 17.768 112.018 17.8533 111.538 18.024C111.058 18.184 110.653 18.4027 110.322 18.68L109.682 17.528C110.12 17.176 110.642 16.9093 111.25 16.728C111.858 16.536 112.504 16.44 113.186 16.44ZM112.834 23.912C113.421 23.912 113.928 23.784 114.354 23.528C114.781 23.2613 115.09 22.888 115.282 22.408V21.224H112.914C111.613 21.224 110.962 21.6613 110.962 22.536C110.962 22.9627 111.128 23.2987 111.458 23.544C111.789 23.7893 112.248 23.912 112.834 23.912ZM131.824 16.52V25H119.744V16.52H121.28V23.656H125.024V16.52H126.56V23.656H130.288V16.52H131.824ZM138.663 25.096C137.799 25.096 137.025 24.9093 136.343 24.536C135.671 24.1627 135.143 23.6507 134.759 23C134.375 22.3387 134.183 21.592 134.183 20.76C134.183 19.928 134.375 19.1867 134.759 18.536C135.143 17.8747 135.671 17.3627 136.343 17C137.025 16.6267 137.799 16.44 138.663 16.44C139.431 16.44 140.113 16.5947 140.711 16.904C141.319 17.2133 141.788 17.6613 142.119 18.248L140.951 19C140.684 18.5947 140.353 18.2907 139.959 18.088C139.564 17.8853 139.127 17.784 138.647 17.784C138.092 17.784 137.591 17.9067 137.143 18.152C136.705 18.3973 136.359 18.7493 136.103 19.208C135.857 19.656 135.735 20.1733 135.735 20.76C135.735 21.3573 135.857 21.8853 136.103 22.344C136.359 22.792 136.705 23.1387 137.143 23.384C137.591 23.6293 138.092 23.752 138.647 23.752C139.127 23.752 139.564 23.6507 139.959 23.448C140.353 23.2453 140.684 22.9413 140.951 22.536L142.119 23.272C141.788 23.8587 141.319 24.312 140.711 24.632C140.113 24.9413 139.431 25.096 138.663 25.096ZM147.291 16.44C148.465 16.44 149.361 16.728 149.979 17.304C150.609 17.88 150.923 18.7387 150.923 19.88V25H149.467V23.88C149.211 24.2747 148.843 24.5787 148.363 24.792C147.894 24.9947 147.334 25.096 146.683 25.096C145.734 25.096 144.971 24.8667 144.395 24.408C143.83 23.9493 143.547 23.3467 143.547 22.6C143.547 21.8533 143.819 21.256 144.363 20.808C144.907 20.3493 145.771 20.12 146.955 20.12H149.387V19.816C149.387 19.1547 149.195 18.648 148.811 18.296C148.427 17.944 147.862 17.768 147.115 17.768C146.614 17.768 146.123 17.8533 145.643 18.024C145.163 18.184 144.758 18.4027 144.427 18.68L143.787 17.528C144.225 17.176 144.747 16.9093 145.355 16.728C145.963 16.536 146.609 16.44 147.291 16.44ZM146.939 23.912C147.526 23.912 148.033 23.784 148.459 23.528C148.886 23.2613 149.195 22.888 149.387 22.408V21.224H147.019C145.718 21.224 145.067 21.6613 145.067 22.536C145.067 22.9627 145.233 23.2987 145.563 23.544C145.894 23.7893 146.353 23.912 146.939 23.912ZM153.849 16.52H155.385V22.696L160.585 16.52H161.977V25H160.441V18.824L155.257 25H153.849V16.52ZM157.817 15.416C157.028 15.416 156.415 15.2293 155.977 14.856C155.54 14.472 155.316 13.9227 155.305 13.208H156.345C156.356 13.6027 156.489 13.9227 156.745 14.168C157.012 14.4027 157.364 14.52 157.801 14.52C158.239 14.52 158.591 14.4027 158.857 14.168C159.124 13.9227 159.263 13.6027 159.273 13.208H160.345C160.335 13.9227 160.105 14.472 159.657 14.856C159.209 15.2293 158.596 15.416 157.817 15.416ZM171.439 17.864H168.335V25H166.799V17.864H163.695V16.52H171.439V17.864Z" fill="#485052"/>
<path d="M279.5 10L282.744 16.5825L290 17.6446L284.75 22.7655L285.989 30L279.5 26.5825L273.011 30L274.25 22.7655L269 17.6446L276.255 16.5825L279.5 10Z" fill="#F1F1F2"/>
<rect x="7" y="7" width="26" height="26" rx="3" fill="#A5A9AB"/>
<path d="M24.6667 19.3019H15.3333C14.597 19.3019 14 19.9285 14 20.7015V25.6003C14 26.3733 14.597 26.9999 15.3333 26.9999H24.6667C25.403 26.9999 26 26.3733 26 25.6003V20.7015C26 19.9285 25.403 19.3019 24.6667 19.3019Z" stroke="white" stroke-width="2" stroke-linecap="round" stroke-linejoin="round"/>
<path d="M16.25 19.2222V16.75C16.25 14.6789 17.9289 13 20 13V13C22.0711 13 23.75 14.6789 23.75 16.75V19.2222" stroke="white" stroke-width="2" stroke-linecap="round" stroke-linejoin="round"/>
</svg>
