<svg width="258" height="80" fill="none" xmlns="http://www.w3.org/2000/svg"><g clip-path="url(#clip0)"><path d="M81.115 18.41c0-2.19 1.768-3.94 4.113-3.94 2.344 0 4.113 1.69 4.113 3.82 0 2.25-1.708 4.01-4.113 4.01-2.334-.01-4.113-1.7-4.113-3.89zm7.084 10.2h-6.124v33.16h6.124V28.61zm42.199 4.62c0 9.43-6.902 15.14-18.31 15.14h-10.682v13.39h-6.447V18.09h17.118c11.43 0 18.321 5.71 18.321 15.14zm-5.77.16c0-6.3-4.264-9.88-12.409-9.88h-10.813v19.77h10.813c8.145 0 12.409-3.59 12.409-9.89zm11.46-14.98c0-2.19 1.768-3.94 4.112-3.94 2.345 0 4.113 1.69 4.113 3.82 0 2.25-1.708 4.01-4.113 4.01-2.334-.01-4.112-1.7-4.112-3.89zm7.205 10.2h-6.124v33.16h6.124V28.61zm41.29 16.66c0 10.2-7.145 16.97-16.957 16.97-4.749 0-8.923-1.82-11.702-5.38V74h-6.073V28.67h5.821v5.26c2.718-3.69 7.023-5.57 11.954-5.57 9.802 0 16.957 6.76 16.957 16.91zm-6.134 0c0-7.01-4.871-11.65-11.328-11.65-6.387 0-11.257 4.63-11.257 11.65 0 7.07 4.87 11.71 11.257 11.71 6.457-.01 11.328-4.64 11.328-11.71zm34.823 11.62c0-.48.04-.95.121-1.4-1.87.99-4.022 1.49-6.407 1.49-5.629 0-9.802-2.63-11.51-7.2l26.638-5.13c-.192-9.89-7.337-16.28-16.512-16.28-9.742 0-16.826 7.07-16.826 16.9 0 9.89 7.216 16.97 18.028 16.97 2.759 0 5.265-.47 7.468-1.36a8.35 8.35 0 01-1-3.99zm-18.756-11.94c0-6.95 4.558-11.52 10.944-11.52 5.437 0 9.428 3.38 10.5 8.14l-21.444 4.01v-.63z" fill="#485052"/><g filter="url(#filter0_i)"><path d="M44.928 61.77H23.98C10.813 61.77.14 51.21.14 38.18s10.673-23.59 23.84-23.59h20.938c13.167 0 23.838 10.56 23.838 23.59.01 13.03-10.66 23.59-23.828 23.59z" fill="url(#paint0_linear)"/></g><g filter="url(#filter1_d)"><path d="M64.26 38.17c0 10.56-8.65 19.13-19.332 19.13-10.681 0-19.331-8.56-19.331-19.13 0-10.57 8.65-19.13 19.331-19.13s19.331 8.57 19.331 19.13z" fill="#fff"/></g><path d="M233.502 48.26v-2.75h-2.9v16.26h3.224v-8.12c0-3.57 1.96-5.5 5.123-5.5.212 0 .435 0 .677.03v-2.86c-2.951-.01-5.042 1-6.124 2.94zm21.262-2.75v8.43c0 3.51-2.011 5.41-5.164 5.41-2.87 0-4.507-1.6-4.507-4.8v-9.04h-2.9v9.36c0 4.79 2.799 7.09 7.023 7.09 2.314 0 4.345-.95 5.548-2.64v2.45h2.9V45.51h-2.9zm-32.852 16.67c2.952 0 5.345-2.368 5.345-5.29s-2.393-5.29-5.345-5.29c-2.953 0-5.346 2.368-5.346 5.29s2.393 5.29 5.346 5.29z" fill="#62C032"/></g><defs><filter id="filter0_i" x=".141" y="14.59" width="69.615" height="48.18" filterUnits="userSpaceOnUse" color-interpolation-filters="sRGB"><feFlood flood-opacity="0" result="BackgroundImageFix"/><feBlend in="SourceGraphic" in2="BackgroundImageFix" result="shape"/><feColorMatrix in="SourceAlpha" values="0 0 0 0 0 0 0 0 0 0 0 0 0 0 0 0 0 0 127 0" result="hardAlpha"/><feOffset dx="1" dy="1"/><feGaussianBlur stdDeviation="2"/><feComposite in2="hardAlpha" operator="arithmetic" k2="-1" k3="1"/><feColorMatrix values="0 0 0 0 0.282353 0 0 0 0 0.313726 0 0 0 0 0.321569 0 0 0 0.25 0"/><feBlend in2="shape" result="effect1_innerShadow"/></filter><filter id="filter1_d" x="24.597" y="18.04" width="42.663" height="42.26" filterUnits="userSpaceOnUse" color-interpolation-filters="sRGB"><feFlood flood-opacity="0" result="BackgroundImageFix"/><feColorMatrix in="SourceAlpha" values="0 0 0 0 0 0 0 0 0 0 0 0 0 0 0 0 0 0 127 0"/><feOffset dx="1" dy="1"/><feGaussianBlur stdDeviation="1"/><feColorMatrix values="0 0 0 0 0.282353 0 0 0 0 0.313726 0 0 0 0 0.321569 0 0 0 0.3 0"/><feBlend in2="BackgroundImageFix" result="effect1_dropShadow"/><feBlend in="SourceGraphic" in2="effect1_dropShadow" result="shape"/></filter><linearGradient id="paint0_linear" x1="10.678" y1="61.77" x2="57.739" y2="61.77" gradientUnits="userSpaceOnUse"><stop stop-color="#6FD93A"/><stop offset="1" stop-color="#62C032"/></linearGradient><clipPath id="clip0"><path fill="#fff" d="M0 0h257.684v80H0z"/></clipPath></defs></svg>